<svg width="49" height="54" viewBox="0 0 49 54" fill="none" xmlns="http://www.w3.org/2000/svg">
<path d="M1.66111 2.31951L3.82805 3.19417C7.47515 4.66117 10.8144 5.26457 13.9878 4.90474C17.1376 4.54491 20.1926 3.22739 23.295 0.846981L24.3963 0L25.4975 0.846981C28.5999 3.22185 31.6549 4.54491 34.8047 4.90474C37.9722 5.26457 41.3174 4.66117 44.9645 3.19417L47.1314 2.31951C48.4458 8.11552 48.7714 14.1219 47.9484 20.0009C46.119 33.1042 38.6412 45.1336 25.2725 52.6346L24.3963 53.1273L23.52 52.6346C10.1513 45.1336 2.67353 33.1042 0.844065 20.0009C0.0270203 14.1219 0.352654 8.11552 1.66111 2.31951Z" fill="#007242"/>
<path fill-rule="evenodd" clip-rule="evenodd" d="M4.86413 7.75011C4.66283 9.2946 4.54442 10.8391 4.50298 12.3781C4.43785 14.8083 4.5681 17.1832 4.88782 19.4916C6.50414 31.0725 12.9398 41.729 24.4021 48.6045C26.3086 47.4586 28.0907 46.1964 29.7425 44.8401C31.7082 43.2181 33.4725 41.4688 35.0356 39.6088C42.5192 30.6961 45.4262 19.2203 43.9342 7.75011C40.6305 8.76316 37.4867 9.11746 34.4021 8.7687C30.9622 8.37566 27.6644 7.11349 24.4021 4.89362C21.134 7.10795 17.8421 8.37566 14.4022 8.7687C11.3176 9.12299 8.16783 8.76316 4.86413 7.75011ZM3.01098 4.79398C-0.363765 22.7134 6.55743 41.1256 24.3962 51.1344C42.2409 41.1256 49.1621 22.7134 45.7874 4.79398C37.8834 7.97708 31.1812 7.39028 24.3962 2.19214C17.6171 7.39028 10.915 7.97708 3.01098 4.79398Z" fill="white"/>
<path d="M32.4187 31.6539C32.8746 31.0117 34.6152 32.0801 34.1534 32.7334L34.1357 32.7555C33.8278 33.1652 33.5022 33.5416 33.1647 33.8793C32.8095 34.2336 32.4365 34.5713 32.0398 34.8757C29.9972 36.4645 27.3684 37.4277 24.5088 37.4277C21.2583 37.4277 18.3099 36.1877 16.1725 34.1893C14.0352 32.1908 12.709 29.434 12.709 26.3948C12.709 23.3557 14.0352 20.5988 16.1725 18.6004C18.3099 16.602 21.2583 15.3619 24.5088 15.3619C26.4922 15.3619 28.3631 15.8269 30.009 16.6407C30.2873 16.7791 30.5537 16.923 30.7964 17.067C32.1108 17.8475 33.2476 18.855 34.1416 20.0342C34.5916 20.6265 32.8746 21.7337 32.4424 21.1579C31.7023 20.1781 30.7668 19.3422 29.6893 18.7111H29.6834C29.4643 18.5783 29.2512 18.462 29.0439 18.3624C27.694 17.6925 26.1488 17.3105 24.5147 17.3105C21.8386 17.3105 19.4111 18.3291 17.6527 19.9788C15.8943 21.623 14.799 23.8982 14.799 26.3948C14.799 28.897 15.8884 31.1667 17.6527 32.8109C19.4111 34.455 21.8445 35.4791 24.5147 35.4791C26.8652 35.4791 29.0262 34.6875 30.7136 33.3811C31.0451 33.1264 31.353 32.8496 31.6431 32.5618C31.9214 32.2628 32.1878 31.9639 32.4187 31.6539Z" fill="white"/>
<path d="M32.318 24.4518C32.7739 24.4518 32.7739 26.4004 32.318 26.4004C26.1606 26.4004 28.067 26.4004 25.4265 26.4004C25.4265 28.2659 25.4265 29.8049 25.4265 40.7105C25.4265 41.1367 23.3424 41.1367 23.3424 40.7105V13.5573C22.2826 13.5573 18.8901 13.5573 16.2258 13.5573C15.7699 13.5573 15.7699 11.6086 16.2258 11.6086C21.1636 11.6086 30.8024 11.6086 35.7461 11.6086C36.202 11.6086 36.202 13.5573 35.7461 13.5573C31.1102 13.5573 25.8113 13.5573 25.4265 13.5573C25.4265 19.4197 25.4265 22.8907 25.4265 24.4573C28.8426 24.4518 29.7367 24.4518 32.318 24.4518Z" fill="white"/>
<path d="M17.7829 38.4795C17.7415 38.9334 15.4857 38.7784 15.5331 38.2968C15.8173 35.3573 16.1192 32.5063 16.6402 29.6886C17.1553 26.893 17.8776 24.2137 18.9966 21.6561C19.1269 21.3627 19.269 21.0638 19.4999 20.8036C19.8374 20.4216 20.2873 20.167 20.9208 20.167H27.8894C28.5229 20.167 28.9729 20.4216 29.3103 20.8036C29.5412 21.0638 29.6833 21.3572 29.8136 21.6561C30.9326 24.2137 31.6549 26.893 32.17 29.6886C32.691 32.5063 32.993 35.3518 33.2772 38.2968C33.3245 38.7729 31.0688 38.9334 31.0273 38.4795C30.7609 35.7227 30.4826 33.071 30.0563 30.5965H18.7539C18.3217 33.071 18.0434 35.7227 17.7829 38.4795ZM21.0748 22.4478C20.2281 24.3798 19.6242 26.3948 19.1624 28.4929H29.636C29.1742 26.4003 28.5703 24.3798 27.7236 22.4478C27.6999 22.3869 27.6703 22.3315 27.6467 22.2761H21.1517C21.1281 22.3315 21.0985 22.3924 21.0748 22.4478Z" fill="white"/>
</svg>
