<svg width="48" height="58" viewBox="0 0 48 58" fill="none" xmlns="http://www.w3.org/2000/svg">
<path d="M48 13.93V15.3153C47.9312 15.8483 47.9523 16.3881 47.9122 16.9231C47.5588 24.3313 45.4979 31.6474 41.9581 38.1583C41.4563 39.1375 40.8626 40.0649 40.3071 41.0142C39.8148 41.7655 39.3226 42.5168 38.8187 43.2606C38.1372 44.1717 37.4979 45.1154 36.7666 45.9882C36.2111 46.6618 35.6834 47.3599 35.0883 47.9993C34.4592 48.6865 33.8635 49.4044 33.1983 50.0574C32.6666 50.5938 32.1382 51.1343 31.6037 51.6686C31.0264 52.2057 30.4422 52.7352 29.8628 53.2702C29.1602 53.9342 28.3942 54.5252 27.6589 55.1509C26.4892 56.163 25.1976 57.0214 24.0034 58H23.9326C23.9292 57.987 23.9237 57.9604 23.9203 57.9468C22.7193 56.9962 21.4523 56.1282 20.2894 55.1284C19.5404 54.4931 18.7622 53.8905 18.05 53.2129C17.2875 52.4998 16.4929 51.8208 15.7719 51.0647C15.1244 50.3959 14.4443 49.7579 13.8329 49.0543C13.3386 48.4988 12.8368 47.9508 12.3479 47.3913C11.518 46.3608 10.6574 45.355 9.89685 44.2706C9.09957 43.2286 8.39694 42.1203 7.67523 41.0251C7.09379 40.0369 6.47762 39.0672 5.95677 38.0436C2.35438 31.3806 0.302979 23.8782 0.0394894 16.3028C0.0299574 16.0114 0.036766 15.7193 0 15.4293V13.8809C0.045617 13.4865 0.032 13.0879 0.0544681 12.6928C0.142979 10.9342 0.300255 9.17158 0.678128 7.44918C1.84715 7.82041 3.01685 8.20392 4.22672 8.42229C6.61992 8.90066 9.10911 8.93615 11.5057 8.45778C14.6437 7.84293 17.5755 6.34845 20.034 4.31556C21.538 3.06538 22.9147 1.63846 23.9932 0C24.7333 1.15122 25.6456 2.18098 26.6233 3.13431C28.866 5.30368 31.5717 7.0254 34.5539 7.96508C37.1071 8.78056 39.8427 8.99142 42.4946 8.62838C44.1362 8.42912 45.7307 7.96917 47.2953 7.44781C47.7243 9.37016 47.8693 11.343 47.9483 13.3077C47.9564 13.5151 47.9626 13.7246 48 13.93Z" fill="white"/>
<path d="M22.4259 2.62047C22.989 2.02064 23.5132 1.38395 23.9953 0.716553C25.0288 2.18032 26.2993 3.46666 27.6719 4.61243C29.728 6.31435 32.0988 7.6512 34.6567 8.423C37.3154 9.23507 40.1553 9.4043 42.8998 8.98599C44.2928 8.77853 45.6627 8.42641 46.9937 7.96647C47.3342 9.67931 47.4731 11.4263 47.5405 13.1692C47.7386 19.2876 46.7302 25.4341 44.6543 31.1882C43.1803 35.2772 41.1595 39.1649 38.6921 42.74C34.7316 48.4954 29.6395 53.4129 23.9864 57.4841C20.8279 55.2008 17.8417 52.6697 15.1326 49.863C11.7331 46.3499 8.76871 42.4029 6.43135 38.1017C2.29926 30.5337 0.164793 21.863 0.435091 13.2326C0.49841 11.4693 0.644112 9.70388 0.979771 7.96988C3.46011 8.82016 6.08547 9.2999 8.7122 9.19412C11.4921 9.09654 14.238 8.33565 16.6945 7.03361C18.8358 5.9015 20.7701 4.38791 22.4259 2.62047ZM23.9898 3.74781C22.6465 5.3583 20.9907 6.68695 19.2157 7.78972C16.8668 9.23848 14.2373 10.228 11.5159 10.6797C8.52428 11.1854 5.44547 11.0298 2.48581 10.3931C2.37824 11.038 2.30947 11.6897 2.25501 12.3414C1.9493 16.3403 2.27815 20.3761 3.08564 24.2999C3.69092 27.2186 4.57875 30.0779 5.72803 32.8273C7.72905 37.6287 10.5328 42.0808 13.9139 46.0244C16.8892 49.5074 20.3078 52.5953 23.9851 55.3182C27.23 52.9236 30.2673 50.2376 32.9811 47.2494C35.8509 44.0946 38.3544 40.5979 40.3548 36.8262C43.1394 31.5922 44.941 25.8292 45.5789 19.9298C45.9051 16.7641 45.9663 13.5493 45.4911 10.3958C42.1372 11.1137 38.6247 11.2141 35.2702 10.4463C32.4678 9.81784 29.8016 8.6052 27.4683 6.92921C26.1944 6.00659 24.9954 4.96318 23.9898 3.74781Z" fill="#1F1A17"/>
<path d="M19.906 8.683C21.4066 7.70374 22.8092 6.55797 23.9946 5.20953C24.9409 6.31367 26.0582 7.26017 27.2327 8.11046C29.6143 9.8158 32.3377 11.0475 35.202 11.6624C38.2652 12.3312 41.4618 12.2725 44.5263 11.6426C44.7421 13.1405 44.7925 14.6582 44.7782 16.1711C44.7496 18.2565 44.5576 20.3399 44.2165 22.3981C30.7295 22.3933 17.2419 22.3974 3.7549 22.396C3.44375 20.473 3.24971 18.5295 3.20409 16.5812C3.17209 14.9325 3.2143 13.2763 3.44988 11.6419C6.27337 12.222 9.20783 12.3209 12.0497 11.8057C14.8432 11.3089 17.5258 10.2266 19.906 8.683ZM10.3421 13.6195C9.59047 13.8816 8.93958 14.4146 8.52903 15.0976C7.93464 16.0762 7.81277 17.3073 8.12051 18.4026C8.36766 19.2829 8.94434 20.0751 9.73754 20.5351C10.6757 21.0906 11.8448 21.1561 12.8783 20.8606C13.6497 20.6415 14.3769 20.1659 14.7704 19.4507C14.2366 19.1211 13.7021 18.7929 13.1677 18.4653C12.9872 18.9601 12.4929 19.2603 11.9946 19.3504C11.4853 19.4528 10.9045 19.3825 10.511 19.0167C10.031 18.5738 9.8703 17.8907 9.86145 17.2595C9.85737 16.6221 9.99966 15.9309 10.4633 15.4641C10.8174 15.1024 11.3546 14.9953 11.8414 15.0594C12.3411 15.1167 12.881 15.3153 13.1404 15.778C13.6633 15.462 14.178 15.1318 14.7057 14.8226C14.4742 14.4412 14.1059 14.1641 13.7239 13.9451C12.7047 13.3855 11.4472 13.2292 10.3421 13.6195ZM22.2809 13.5629C21.3828 16.0039 20.465 18.438 19.5575 20.8763C20.209 20.8852 20.8599 20.8783 21.5115 20.8797C21.6674 20.4423 21.8158 20.0014 21.9758 19.5654C22.8235 19.5695 23.6712 19.5661 24.5195 19.5667C24.672 20.0042 24.8184 20.4436 24.9723 20.8811C25.6334 20.8756 26.2945 20.8879 26.9556 20.8742C26.0419 18.4367 25.1343 15.9964 24.224 13.5568C23.5765 13.5595 22.9283 13.5486 22.2809 13.5629ZM31.6623 13.5568C31.6623 15.9977 31.6623 18.4387 31.6623 20.8797C32.2587 20.8804 32.8558 20.8804 33.4529 20.8797C33.4557 19.0454 33.4482 17.2111 33.4563 15.3767C33.9956 17.2036 34.4878 19.0454 35.0073 20.879C35.4941 20.8776 35.9816 20.8886 36.4684 20.8722C36.9607 19.0467 37.4747 17.2268 37.9731 15.4027C37.9881 15.5221 37.9976 15.6429 37.999 15.765C38.0024 17.4683 38.0133 19.1716 38.0153 20.8756C38.6131 20.8838 39.2109 20.8817 39.8087 20.877C39.8005 18.4346 39.8203 15.9923 39.7985 13.5506C38.8691 13.5615 37.9398 13.5574 37.0104 13.5527C36.5801 15.172 36.1736 16.7968 35.7495 18.4176C35.3028 16.8023 34.8977 15.1754 34.4654 13.5561C33.5312 13.5568 32.5964 13.5561 31.6623 13.5568Z" fill="#1F1A17"/>
<path d="M22.4122 18.1459C22.6982 17.3025 22.944 16.4447 23.249 15.608C23.5207 16.4563 23.7964 17.3031 24.0694 18.1514C23.5173 18.1486 22.9644 18.1582 22.4122 18.1459Z" fill="#1F1A17"/>
<path d="M4.02588 23.8802C6.41567 23.8823 8.80545 23.8802 11.1946 23.8809C11.1932 29.5033 11.1973 35.1257 11.1925 40.748C7.69975 35.69 5.23235 29.9148 4.02588 23.8802Z" fill="#1F1A17"/>
<path d="M12.8749 23.8816C14.9746 23.8829 17.0751 23.8768 19.1755 23.8843C19.1714 32.5516 19.1714 41.2189 19.1755 49.8861C17.4448 48.3289 15.8305 46.642 14.3217 44.8677C13.8329 44.2726 13.3175 43.6899 12.8797 43.0586C12.8681 36.6665 12.8783 30.2737 12.8749 23.8816Z" fill="#1F1A17"/>
<path d="M20.8518 23.883C22.9522 23.8802 25.0526 23.8802 27.153 23.883C27.1476 33.0402 27.1565 42.1975 27.1483 51.3547C26.1148 52.2152 25.0676 53.0614 23.9823 53.8571C22.9182 53.0525 21.8622 52.2343 20.8497 51.3643C20.8565 42.2036 20.8525 33.0429 20.8518 23.883Z" fill="#1F1A17"/>
<path d="M28.8293 23.8843C30.929 23.8768 33.0295 23.883 35.1299 23.8809C35.1292 30.269 35.1313 36.657 35.1285 43.045C33.2337 45.4983 31.1176 47.7769 28.832 49.8678C28.8293 41.2066 28.8347 32.5455 28.8293 23.8843Z" fill="#1F1A17"/>
<path d="M36.8095 23.8809C39.1898 23.8802 41.5693 23.8816 43.9489 23.8802C42.8616 29.3368 40.7326 34.5743 37.7634 39.272C37.4529 39.7463 37.1663 40.239 36.8163 40.6853C36.8007 35.084 36.8143 29.4821 36.8095 23.8809Z" fill="#1F1A17"/>
</svg>
