<svg width="51" height="67" viewBox="0 0 51 67" fill="none" xmlns="http://www.w3.org/2000/svg">
<path d="M21.7105 23.6898V21.841L25.7982 18.4539V13.0113L22.5183 10.3666L17.9433 14.155V13.0473L14.6276 10.3653L11.733 12.7607L8.82377 10.3613L4.07929 14.287L1.48657 20.8093L3.94422 18.7738V24.527L6.91167 26.9743L7.44266 27.4076L9.74803 25.5014V28.3726L13.8225 25.0122V28.3793L17.6281 25.2241V27.0676L3.32584 38.9059V50.3523L22.0177 65.803L40.7136 50.3296V40.2389L45.0158 36.6772V26.793L49.5749 23.0194V0.62915L21.7105 23.6898Z" fill="white"/>
<path d="M9.95195 53.7021L47.9541 22.2475V14.179L5.0777 49.6671L9.95195 53.7021Z" fill="#231F20"/>
<path d="M43.3951 27.8341V35.9053L15.9213 58.6435L11.0471 54.6085L43.3951 27.8341Z" fill="#E43031"/>
<path d="M47.9541 12.3661V4.08423L4.94794 39.6764V47.9635L47.9541 12.3661Z" fill="#E43031"/>
<path d="M17.0164 59.5486L22.0177 63.6902L39.0915 49.5579V41.2787L17.0164 59.5486Z" fill="#231F20"/>
<path d="M20.8975 13.6512V18.9285L20.6724 19.1151V13.4632L20.8975 13.6392V13.6512ZM7.20828 13.7418L6.99377 13.5606V22.309L7.21887 22.4956L7.20828 13.7418ZM8.56422 14.7362L10.7014 12.9687L10.8709 13.102L8.73637 14.8735L8.56422 14.7362ZM16.9065 13.2566L17.1329 13.4406V21.9477L16.9065 22.1357V13.2566ZM4.8751 16.9423L3.5708 18.0221L3.73632 17.6062L5.40477 16.2292L4.8751 16.9423ZM13.0505 13.7432V18.8565L12.8267 19.0445V13.5539L13.0505 13.7432ZM24.9825 13.4059V18.0714L20.8975 21.4612V24.4151L18.4822 26.4146V26.1266L20.6724 24.3164V21.3639L24.7614 17.9754V13.2206L24.9825 13.4059ZM18.4941 23.454L14.6739 26.6105V26.3306L19.0437 22.7155L18.4941 23.454ZM14.3892 20.5934L13.0651 21.6931V24.591L10.6048 26.6105V26.3306L12.832 24.4937V21.5945L14.3839 20.3095L14.3892 20.5934ZM18.4438 23.9445L20.5002 21.1852V24.1418L18.4385 25.844L18.4438 23.9445ZM10.5584 23.9939L12.6546 21.4225V24.3218L10.5584 26.0453V23.9939ZM22.5262 11.4158L18.4385 14.7962V21.1946L16.7303 22.6142V13.1127L14.6315 11.4158L10.5584 14.7962V21.2519L7.93392 23.4127L6.80971 22.4862V14.7429L4.7546 17.5329V24.1418L7.06395 26.0453L14.6315 19.7803V26.0453L24.5879 17.8008V13.0753L22.5262 11.4158ZM20.5002 13.0993L22.4865 14.6629V17.8621L20.5002 19.503V13.0993ZM12.6546 13.1127H12.6956L14.6315 14.7282V17.8728L12.6546 19.5083V13.1127ZM6.80971 13.0993V14.7429L4.7546 16.4451L3.77207 17.2556L4.7546 14.7842L8.82509 11.4158L10.5094 12.8074L8.50861 14.459L6.80971 13.0993ZM10.8881 23.2141L7.27184 26.2159L7.44001 26.3572L10.1598 24.1045L10.8881 23.2141Z" fill="#231F20"/>
</svg>
