<svg width="49" height="52" viewBox="0 0 49 52" fill="none" xmlns="http://www.w3.org/2000/svg">
<g clip-path="url(#clip0_198_1097)">
<path fill-rule="evenodd" clip-rule="evenodd" d="M24.4298 0C24.7906 0.245658 25.1486 0.494831 25.5127 0.736121C26.078 1.111 26.6253 1.51102 27.2025 1.86917C28.3314 2.56982 29.5537 3.05048 30.847 3.36602C31.764 3.5881 32.7003 3.7251 33.6436 3.77521C34.598 3.82783 35.5503 3.80599 36.5023 3.72279C38.0855 3.5843 39.6402 3.28911 41.1819 2.92158C41.7917 2.77627 42.399 2.6233 43.0055 2.46649C43.0934 2.4438 43.1362 2.46308 43.1875 2.52902C44.9344 4.77446 46.6823 7.01911 48.4312 9.26299C48.5098 9.36398 48.5092 9.3644 48.4086 9.45591C47.8545 9.96012 47.2889 10.4525 46.7545 10.9773C45.9985 11.7192 45.2952 12.5051 44.6975 13.3764C44.1477 14.1777 43.7031 15.0287 43.4397 15.9637C43.2096 16.7785 43.1352 17.6279 43.2203 18.4691C43.3165 19.4463 43.6014 20.3751 43.96 21.2856C44.3063 22.1644 44.717 23.0158 45.1155 23.8721C45.5675 24.843 46.0085 25.8179 46.3823 26.8209C46.772 27.8675 47.08 28.9357 47.269 30.035C47.352 30.5172 47.4084 31.0025 47.4494 31.4901C47.5009 32.0894 47.5155 32.6913 47.4929 33.2923C47.4276 34.963 47.0917 36.5734 46.3532 38.092C45.5786 39.6847 44.4436 40.9849 43.0041 42.0383C42.3451 42.5204 41.6343 42.9188 40.9112 43.2996C35.4787 46.1608 30.047 49.0235 24.6161 51.8878C24.552 51.9217 24.4826 51.9478 24.4298 52H24.4023C23.9513 51.7991 23.5261 51.5501 23.0888 51.3237C22.6553 51.0992 22.2239 50.8705 21.793 50.6413C21.1242 50.2857 20.4542 49.9322 19.7831 49.5807C19.1613 49.2532 18.5396 48.9255 17.9181 48.5974C17.2477 48.2448 16.5777 47.8915 15.9079 47.5376C15.391 47.2654 14.8741 46.9934 14.357 46.7214C13.5817 46.3132 12.8069 45.9043 12.0324 45.4945C11.5205 45.2232 11.0067 44.9545 10.494 44.6843C9.69044 44.2607 8.88695 43.8374 8.08349 43.4142C7.60325 43.1605 7.12028 42.9119 6.66149 42.6214C6.1133 42.2744 5.59908 41.8855 5.12494 41.4458C4.56019 40.9221 4.05294 40.3505 3.62028 39.7173C2.89938 38.6627 2.39768 37.5122 2.06434 36.2879C1.85003 35.5011 1.71293 34.7006 1.63408 33.891C1.59499 33.4898 1.56591 33.0873 1.57092 32.6829C1.57332 32.4912 1.54174 32.2994 1.54489 32.1058C1.57179 30.4425 1.78186 28.8076 2.29227 27.2139C2.6537 26.0854 3.10748 24.9934 3.59175 23.9115C4.11806 22.7364 4.6839 21.5769 5.09107 20.3534C5.30473 19.7116 5.46209 19.0566 5.53156 18.3844C5.636 17.3738 5.51065 16.3898 5.1673 15.4301C4.77254 14.3265 4.13701 13.3618 3.40205 12.4517C2.81748 11.7289 2.15135 11.08 1.47585 10.4399C1.13358 10.116 0.776288 9.80671 0.427051 9.48947C0.387505 9.45227 0.350234 9.41282 0.31543 9.37133L0.31543 9.34437C0.613267 8.93498 0.931905 8.54093 1.24281 8.14123C1.77053 7.46263 2.2988 6.78439 2.82761 6.1065C3.75339 4.91799 4.67834 3.72879 5.60246 2.53893C5.68032 2.43826 5.76308 2.40949 5.88657 2.44166C6.53837 2.61126 7.19201 2.77358 7.84751 2.92861C9.10561 3.22786 10.3759 3.46435 11.6609 3.61978C12.138 3.67752 12.6178 3.71022 13.0984 3.73973C13.7267 3.77829 14.3554 3.77521 14.9823 3.75411C15.8535 3.72471 16.7164 3.60657 17.5699 3.42579C19.3333 3.05208 20.9545 2.36944 22.4133 1.32289C23.0088 0.895703 23.6284 0.501543 24.232 0.0853304C24.2853 0.0485776 24.3474 0.0320655 24.4025 0.00010653L24.4298 0Z" fill="black"/>
<path fill-rule="evenodd" clip-rule="evenodd" d="M46.4718 9.18945C46.2659 9.38227 46.0655 9.56678 45.8688 9.75491C44.978 10.6071 44.1472 11.5095 43.4345 12.5115C42.8029 13.3996 42.2835 14.3438 41.9525 15.3811C41.6525 16.3217 41.5428 17.2837 41.6149 18.2646C41.6795 19.1418 41.8872 19.9904 42.1714 20.8227C42.4937 21.7682 42.9037 22.6785 43.3242 23.5846C43.7768 24.56 44.2423 25.5297 44.6496 26.5248C45.0743 27.5625 45.4343 28.6201 45.668 29.7159C45.7939 30.3133 45.8828 30.9175 45.9345 31.5254C45.987 32.1112 46.0019 32.6996 45.9789 33.2873C45.9174 34.8013 45.5999 36.2557 44.8992 37.6176C44.2131 38.9502 43.233 40.0358 42.0085 40.9184C41.4422 41.3263 40.8324 41.6632 40.2143 41.9887C34.991 44.7403 29.7687 47.4935 24.5472 50.2484C24.4629 50.2929 24.4005 50.3017 24.3106 50.2543C18.9641 47.4327 13.6169 44.6132 8.26897 41.7958C7.19969 41.2325 6.25434 40.519 5.47245 39.606C4.63241 38.6259 4.0522 37.5101 3.67432 36.29C3.43572 35.5196 3.2861 34.7322 3.19887 33.9321C3.10173 33.0416 3.09531 32.1497 3.13244 31.2565C3.19429 29.7702 3.51587 28.3348 4.01539 26.9338C4.36877 25.9426 4.79467 24.9804 5.22928 24.0216C5.64898 23.0958 6.07869 22.1739 6.43381 21.2216C6.71085 20.4793 6.94226 19.7248 7.07261 18.9433C7.18989 18.2402 7.22507 17.5354 7.15189 16.8248C7.02785 15.6122 6.61044 14.4968 6.00072 13.4436C5.40276 12.411 4.65582 11.4872 3.8356 10.6173C3.40294 10.1586 2.9508 9.71911 2.48373 9.29363C2.46021 9.27233 2.43832 9.24889 2.41317 9.22972C2.37494 9.20021 2.37886 9.17187 2.40892 9.13991C2.42438 9.1234 2.43712 9.10454 2.45106 9.08665C3.71291 7.46626 4.97399 5.84537 6.23431 4.22398C6.29965 4.13961 6.35475 4.11852 6.46038 4.14579C7.34246 4.37281 8.22868 4.5782 9.12317 4.7512C9.82894 4.88766 10.5381 5.00357 11.2517 5.09476C12.4185 5.2439 13.5896 5.3124 14.7655 5.27415C16.8987 5.2048 18.9581 4.80415 20.909 3.93305C21.7512 3.5556 22.5522 3.09563 23.2996 2.5602C23.644 2.31454 24.0002 2.08465 24.3484 1.84389C24.4087 1.80224 24.4482 1.81044 24.5041 1.84901C24.8977 2.12023 25.2968 2.38357 25.6879 2.65863C27.0424 3.60995 28.5324 4.28194 30.1387 4.71082C31.0558 4.95584 31.9888 5.11329 32.935 5.20299C33.7908 5.28396 34.6478 5.30036 35.5057 5.26968C36.3999 5.23772 37.2888 5.14611 38.1737 5.0171C39.5762 4.81245 40.9564 4.50554 42.3285 4.16529C42.3551 4.15868 42.3835 4.1557 42.4078 4.14398C42.4956 4.10254 42.5443 4.13865 42.5991 4.20939C43.8617 5.83475 45.1259 7.45891 46.3916 9.08185C46.4165 9.11381 46.44 9.14662 46.4718 9.18945Z" fill="#FEFEFE"/>
<path fill-rule="evenodd" clip-rule="evenodd" d="M40.9578 6.02955L7.25152 23.6593C7.24357 23.5972 7.2733 23.566 7.29061 23.5328C7.8778 22.3969 8.29858 21.2049 8.5057 19.9481C8.62963 19.1963 8.75759 18.4436 8.7761 17.6782C8.80735 16.3785 8.53652 15.1393 8.01 13.9496C7.53683 12.8805 6.89727 11.9104 6.16547 10.9958C5.64733 10.3483 5.08738 9.73732 4.49867 9.15045C4.47308 9.12477 4.44858 9.09718 4.42125 9.07385C4.3901 9.04658 4.39533 9.02229 4.41994 8.99449C4.44085 8.97084 4.45914 8.94484 4.47864 8.91992C5.25682 7.92066 6.03447 6.92095 6.81157 5.92078C6.87179 5.84301 6.92134 5.81595 7.02468 5.84184C8.00574 6.08747 8.99932 6.28244 10.0013 6.42594C10.7451 6.53247 11.4912 6.62334 12.2409 6.68428C13.0822 6.7537 13.9269 6.77603 14.7707 6.75118C15.3301 6.73413 15.8876 6.69067 16.4442 6.62995C17.7336 6.48971 19.003 6.20973 20.2292 5.79518C21.1447 5.48624 22.0331 5.11882 22.8785 4.65531C23.3785 4.38137 23.861 4.07772 24.3231 3.74608C24.4244 3.67332 24.4016 3.65766 24.52 3.7431C25.9045 4.74185 27.4186 5.48916 29.0624 5.98502C29.8863 6.23579 30.7255 6.4187 31.5779 6.54749C32.8521 6.73989 34.1337 6.78804 35.4196 6.75161C36.2411 6.72838 37.0578 6.65711 37.8728 6.55154C38.8958 6.41923 39.9085 6.23376 40.9151 6.0141C40.9285 6.01214 40.942 6.01114 40.9555 6.01112L40.9578 6.02955Z" fill="black"/>
<path fill-rule="evenodd" clip-rule="evenodd" d="M29.8758 21.3534V21.4963C29.8758 29.4487 29.8765 37.4012 29.8779 45.3536C29.8779 45.454 29.8538 45.5118 29.7581 45.5638C28.0172 46.5126 26.2781 47.4646 24.5408 48.4199C24.4554 48.4667 24.3931 48.4699 24.305 48.4224C22.4992 47.4495 20.6917 46.4797 18.8826 45.5132C18.7911 45.4643 18.7564 45.4134 18.7564 45.308C18.7597 39.2809 18.7597 33.2537 18.7564 27.2265C18.7564 27.1212 18.7891 27.0704 18.8835 27.0218C22.1644 25.3272 25.4442 23.6305 28.7229 21.9317C29.0549 21.7599 29.387 21.5883 29.7191 21.4167C29.7633 21.3942 29.8042 21.3638 29.8758 21.3534Z" fill="black"/>
<path fill-rule="evenodd" clip-rule="evenodd" d="M39.5368 15.6731C39.4761 16.0393 39.4365 16.4085 39.4183 16.779C39.3945 17.2555 39.421 17.7298 39.4758 18.2029C39.6353 19.5782 40.0747 20.8768 40.603 22.152C41.0041 23.1201 41.4584 24.0651 41.8981 25.0164C42.3057 25.8985 42.6996 26.7862 43.0214 27.7027C43.3227 28.5609 43.5352 29.441 43.6976 30.3332C43.8543 31.1939 43.895 32.0627 43.8582 32.9342C43.8076 34.1329 43.5625 35.29 43.037 36.3812C42.4433 37.614 41.5653 38.6129 40.4343 39.4037C39.9597 39.7354 39.4575 40.0216 38.9448 40.2918C36.977 41.3287 35.0096 42.3661 33.0425 43.404C33.0032 43.4253 32.9675 43.4549 32.9168 43.4573C32.8962 43.4138 32.9059 43.3691 32.9059 43.3261C32.9054 35.2894 32.9045 27.2527 32.9033 19.2161C32.9033 19.1202 32.9266 19.0669 33.0193 19.0192C35.1451 17.9298 37.2696 16.8379 39.3927 15.7437C39.4318 15.7238 39.473 15.7044 39.5368 15.6731Z" fill="black"/>
<path fill-rule="evenodd" clip-rule="evenodd" d="M15.0454 29.0155V43.6219C14.9917 43.6284 14.9605 43.5975 14.9256 43.5793C12.963 42.5611 11.0005 41.5426 9.03819 40.5239C8.12127 40.0482 7.30943 39.4432 6.63948 38.6626C5.91781 37.8219 5.42461 36.8637 5.10728 35.8151C4.96997 35.3639 4.86542 34.9038 4.79442 34.4382C4.77764 34.3277 4.77612 34.3274 4.87609 34.2756C5.66139 33.8689 6.44673 33.4623 7.23211 33.0559L14.9085 29.0826C14.9481 29.0624 14.9886 29.0434 15.0454 29.0155Z" fill="black"/>
<path fill-rule="evenodd" clip-rule="evenodd" d="M32.2562 15.9156C32.3459 15.8922 32.4327 15.8647 32.5215 15.8474C32.8501 15.7835 33.1205 15.8756 33.3151 16.1484C33.4831 16.384 33.62 16.6384 33.7616 16.8895C33.841 17.0305 33.9188 17.1726 33.9956 17.3114C33.9777 17.3553 33.9392 17.3624 33.9085 17.3787C33.4946 17.5998 33.0804 17.8206 32.6658 18.041C32.5736 18.0901 32.5718 18.0894 32.5224 18.0017C32.4141 17.8093 32.3091 17.6151 32.1871 17.4305C32.1382 17.3545 32.0815 17.2836 32.0181 17.2188C31.8886 17.0889 31.7364 17.0572 31.5653 17.1193C31.4751 17.1516 31.3873 17.19 31.3025 17.2343C30.5245 17.6447 29.7472 18.0562 28.9705 18.4689C28.9503 18.4796 28.9291 18.4884 28.916 18.5192C29.0836 18.821 29.2536 19.1275 29.4242 19.4341C29.4569 19.4932 29.4862 19.5546 29.5237 19.6106C29.563 19.6694 29.5553 19.7001 29.4884 19.7344C29.2207 19.8716 28.9563 20.015 28.6907 20.1561C28.5297 20.2413 28.3686 20.3266 28.2081 20.4132C28.1064 20.4679 28.1135 20.4679 28.0574 20.3669C27.71 19.7406 27.3619 19.1146 27.0132 18.4888L25.594 15.9378C25.5765 15.9063 25.5603 15.8738 25.5416 15.8433C25.5211 15.8095 25.5258 15.7852 25.5633 15.7681C25.5841 15.7586 25.6034 15.7467 25.6236 15.7361C27.0579 14.9778 28.4837 14.2042 29.9244 13.4575C30.1104 13.3616 30.2973 13.2658 30.4878 13.1782C30.7385 13.0606 31.023 13.0316 31.293 13.0961C31.4662 13.136 31.6152 13.2217 31.7421 13.3444C31.8603 13.4586 31.9587 13.5881 32.0471 13.7244C32.2571 14.046 32.4459 14.3789 32.5893 14.7347C32.657 14.9028 32.7036 15.0751 32.6744 15.2594C32.6417 15.4686 32.5293 15.6334 32.3794 15.7789C32.3388 15.8197 32.302 15.8652 32.2562 15.9156Z" fill="#1F211D"/>
<path fill-rule="evenodd" clip-rule="evenodd" d="M18.095 21.1555C18.0644 21.1909 18.0198 21.205 17.9801 21.2262C16.7813 21.8645 15.5826 22.5029 14.3839 23.1412C14.2364 23.2199 14.2423 23.1917 14.3213 23.3337C14.402 23.4795 14.483 23.6251 14.5644 23.7705C14.6287 23.8857 14.6289 23.8857 14.7413 23.826C15.7268 23.3012 16.7124 22.7764 17.6979 22.2517C17.8904 22.1492 18.0834 22.0474 18.2721 21.9474C18.3116 21.9653 18.3198 21.9982 18.3349 22.025C18.4909 22.3041 18.6463 22.5837 18.8012 22.8637C18.857 22.9645 18.8568 22.9656 18.7536 23.0206C18.0457 23.3979 17.3377 23.7748 16.6295 24.1513C16.183 24.3889 15.7365 24.6266 15.2901 24.8642C15.2628 24.8787 15.2292 24.8869 15.2079 24.9273C15.3314 25.1495 15.4595 25.376 15.5832 25.6048C15.6174 25.668 15.6513 25.642 15.693 25.6197C16.1151 25.3944 16.5374 25.1695 16.96 24.945C17.7687 24.5146 18.5774 24.0843 19.3861 23.654C19.4187 23.637 19.4514 23.6221 19.4981 23.5982C19.704 23.9678 19.9093 24.3359 20.1218 24.7168L14.8061 27.5461L12.2095 22.8775C12.3246 22.8157 12.4322 22.7574 12.5403 22.6998C14.1534 21.841 15.7667 20.9824 17.38 20.124C17.507 20.0565 17.4836 20.0379 17.5585 20.1723C17.7251 20.4714 17.8916 20.7706 18.0578 21.0699C18.0723 21.097 18.0944 21.1214 18.095 21.1555Z" fill="#1F211D"/>
<path fill-rule="evenodd" clip-rule="evenodd" d="M8.42011 30.7005C8.13621 30.7035 7.89108 30.6092 7.68319 30.4206C7.53857 30.2888 7.41307 30.1383 7.31021 29.9732C6.84942 29.2398 6.42993 28.4823 6.05363 27.7041C5.96564 27.5217 5.89834 27.3313 5.87068 27.1288C5.83366 26.8574 5.90226 26.6132 6.0569 26.3892C6.17113 26.2236 6.31825 26.0895 6.47964 25.9688C6.79305 25.7336 7.12835 25.5307 7.4679 25.3347C8.27288 24.8701 9.08842 24.4239 9.93314 24.0313C10.1945 23.9099 10.4633 23.8095 10.7524 23.7687C11.1074 23.7187 11.4145 23.8098 11.6707 24.0578C11.8384 24.2202 11.9677 24.4106 12.0869 24.6079C12.1429 24.7005 12.1936 24.7961 12.2451 24.8911C12.3009 24.994 12.3004 24.9948 12.2004 25.0485C12.0438 25.1325 11.887 25.2162 11.73 25.2996C11.4643 25.441 11.1987 25.5821 10.9329 25.7231C10.8496 25.7671 10.8493 25.7657 10.797 25.6889C10.7512 25.6219 10.7071 25.5533 10.6568 25.4896C10.5898 25.405 10.5001 25.3709 10.3898 25.3867C10.27 25.4037 10.1594 25.4456 10.0499 25.4912C9.55189 25.6988 9.08069 25.9573 8.60828 26.2148C8.44428 26.3043 8.28387 26.4002 8.12379 26.4963C8.02197 26.5572 7.9274 26.629 7.84186 26.7104C7.71608 26.8306 7.67698 26.9757 7.70366 27.1409C7.72122 27.2472 7.75209 27.3509 7.79557 27.4498C7.98923 27.8908 8.22307 28.3138 8.49427 28.7138C8.54165 28.7855 8.59774 28.8514 8.66132 28.9099C8.79875 29.0346 8.95621 29.0804 9.14276 29.04C9.28993 29.0064 9.4325 28.9559 9.56746 28.8894C10.1728 28.6 10.7623 28.2821 11.3404 27.9436C11.4387 27.8858 11.5317 27.8199 11.6185 27.7465C11.7635 27.6245 11.8048 27.4779 11.7491 27.2991C11.7166 27.1916 11.6736 27.0874 11.6207 26.988C11.5913 26.9347 11.6059 26.9108 11.6562 26.8843C12.0997 26.6499 12.5424 26.4144 12.9843 26.1777C13.0219 26.1576 13.0471 26.1525 13.073 26.1959C13.2652 26.5169 13.4608 26.835 13.5622 27.1997C13.6726 27.5967 13.5721 27.9336 13.2907 28.2281C13.1553 28.3698 13.001 28.4896 12.8398 28.601C12.4165 28.8944 11.9678 29.1471 11.5133 29.3901C10.8824 29.7275 10.25 30.0632 9.59795 30.3595C9.28585 30.5013 8.96819 30.6279 8.6256 30.6831C8.55761 30.6937 8.48894 30.6995 8.42011 30.7005Z" fill="#1F211D"/>
<path fill-rule="evenodd" clip-rule="evenodd" d="M27.6483 20.711L26.5413 21.3011C26.3964 21.3783 26.2489 21.451 26.1079 21.5344C26.029 21.5811 25.9735 21.5734 25.8995 21.5205C25.6849 21.3673 25.4612 21.2262 25.245 21.0748C25.1809 21.03 25.1328 21.0228 25.0607 21.0614C24.0682 21.5929 23.0745 22.122 22.0796 22.6487C22.0195 22.6806 21.9959 22.7162 21.9989 22.7845C22.0106 23.0579 22.0144 23.3316 22.0251 23.6048C22.0276 23.6687 22.0165 23.7113 21.9516 23.7449C21.4432 24.0119 20.9369 24.2832 20.4299 24.5527C20.4146 24.5595 20.3988 24.5652 20.3827 24.5697C20.35 24.5478 20.3609 24.5187 20.3609 24.4944C20.3402 22.5694 20.32 20.6445 20.3002 18.7195C20.3014 18.6971 20.3011 18.6747 20.2992 18.6523C20.2897 18.5897 20.3197 18.5564 20.3754 18.5276C20.6303 18.3953 20.8831 18.259 21.1366 18.1242C21.5793 17.8888 22.0227 17.6549 22.4638 17.4166C22.5317 17.3799 22.5794 17.3777 22.6468 17.422C24.2828 18.4986 25.9194 19.5731 27.5566 20.6455C27.5822 20.6624 27.6064 20.6811 27.6483 20.711Z" fill="#1F211D"/>
<path fill-rule="evenodd" clip-rule="evenodd" d="M34.355 17.124C34.334 17.0885 34.3441 17.0522 34.3433 17.0175C34.3226 15.1013 34.3024 13.185 34.2825 11.2686C34.2834 11.2597 34.2834 11.2507 34.2825 11.2418C34.2662 11.1592 34.3021 11.112 34.3785 11.0746C34.5463 10.9924 34.7097 10.9014 34.8747 10.8136C35.398 10.5353 35.9217 10.2579 36.4434 9.97695C36.5109 9.94052 36.5582 9.93519 36.6277 9.98089C38.2709 11.0622 39.9153 12.1417 41.5608 13.2194C41.5796 13.2318 41.5978 13.2452 41.6158 13.2578C41.6 13.2992 41.5607 13.3066 41.5302 13.3229C41.0476 13.5805 40.5633 13.8349 40.0825 14.0956C40.0062 14.1368 39.9552 14.131 39.8874 14.0835C39.6677 13.9292 39.4425 13.7825 39.2213 13.6301C39.1643 13.5909 39.1218 13.578 39.0509 13.616C38.0588 14.1487 37.0649 14.6778 36.0692 15.2033C35.9974 15.2412 35.976 15.2836 35.9795 15.3607C35.9917 15.6341 35.9955 15.908 36.0043 16.1816C36.0059 16.2292 36.0031 16.2658 35.9521 16.2928C35.4321 16.5674 34.9127 16.8431 34.3938 17.1199C34.3834 17.1261 34.368 17.1231 34.355 17.124Z" fill="#1F211D"/>
<path fill-rule="evenodd" clip-rule="evenodd" d="M37.9181 10.2288C37.8289 10.1531 37.7548 10.0872 37.6773 10.0257C37.638 9.99447 37.6378 9.95953 37.6476 9.91798C37.7503 9.47766 37.8527 9.03734 37.955 8.59701C37.9647 8.55504 37.9826 8.52489 38.0312 8.51467C38.3887 8.43924 38.7455 8.36201 39.1027 8.28573C39.1063 8.28499 39.111 8.28893 39.1308 8.29692C38.7296 8.93642 38.3296 9.57379 37.9181 10.2288Z" fill="#1F211D"/>
<path fill-rule="evenodd" clip-rule="evenodd" d="M10.443 14.616H10.5862C11.623 14.616 12.6599 14.614 13.6967 14.6188C13.8042 14.6188 13.8594 14.5855 13.9117 14.4973C14.2127 13.989 14.5197 13.4842 14.8265 12.9788C14.8516 12.9374 14.8678 12.8886 14.9136 12.8569C14.9494 12.8859 14.9654 12.9276 14.9876 12.9641C15.2982 13.4773 15.6105 13.9896 15.9163 14.5055C15.9668 14.5907 16.0218 14.6186 16.1214 14.6183C17.1582 14.6145 18.1951 14.616 19.232 14.616H19.3779C19.3799 14.625 19.3819 14.6342 19.3839 14.6432L16.6483 15.7132C17.0024 16.3 17.3524 16.88 17.7094 17.4721C17.6489 17.4677 17.6096 17.445 17.5679 17.4288C16.7218 17.0982 15.876 16.7671 15.0305 16.4354C14.948 16.4028 14.8794 16.4012 14.7958 16.4342C13.9463 16.7694 13.0962 17.1023 12.2455 17.4327C12.2088 17.4471 12.1721 17.4613 12.12 17.4582L13.1737 15.7132L10.4387 14.6423C10.44 14.6335 10.4414 14.6247 10.443 14.616Z" fill="white"/>
<path fill-rule="evenodd" clip-rule="evenodd" d="M8.46518 13.4957C8.74908 13.0204 9.03308 12.5452 9.32548 12.0556L7.08783 11.1701L7.09044 11.146H7.23201C8.06672 11.146 8.90143 11.1441 9.73668 11.1484C9.83708 11.1484 9.8911 11.1171 9.9401 11.0332C10.1809 10.6206 10.428 10.2115 10.6741 9.80192C10.6959 9.76485 10.7098 9.71979 10.759 9.69092C10.7865 9.7346 10.8129 9.77486 10.8375 9.81609C11.083 10.2261 11.3305 10.6349 11.571 11.0477C11.6165 11.1258 11.6668 11.1484 11.755 11.1479C12.5897 11.1446 13.4244 11.146 14.2591 11.146H14.4101C14.4126 11.1538 14.4152 11.1616 14.4178 11.1693L12.1769 12.0559L13.0416 13.5047C12.9705 13.5058 12.9242 13.4756 12.8759 13.4565C12.205 13.1926 11.5347 12.9269 10.8649 12.6595C10.7807 12.6257 10.7113 12.6315 10.6299 12.664C9.94743 12.9362 9.26435 13.2065 8.58061 13.4746C8.54794 13.4876 8.51451 13.5003 8.48151 13.5132L8.46518 13.4957Z" fill="white"/>
<path fill-rule="evenodd" clip-rule="evenodd" d="M13.076 10.2772L13.9047 9.08866L11.7346 8.35435C11.7754 8.32665 11.8051 8.33389 11.8315 8.33389C12.6524 8.33389 13.4733 8.33144 14.2943 8.33613C14.3995 8.33677 14.4593 8.30417 14.5164 8.21991C14.7362 7.89446 14.9642 7.57423 15.1893 7.25219C15.2175 7.21181 15.2471 7.1724 15.2755 7.1333C15.3269 7.14502 15.3387 7.18848 15.3609 7.22012C15.597 7.55644 15.8338 7.89243 16.0652 8.23216C16.1166 8.30758 16.1721 8.33645 16.2659 8.33602C17.1143 8.33229 17.9627 8.33379 18.813 8.33379C18.7984 8.34881 18.8139 8.3307 18.815 8.34859C18.8151 8.35054 18.8148 8.35249 18.8141 8.35432C18.8134 8.35615 18.8124 8.35782 18.811 8.35925C18.8043 8.36487 18.7967 8.36937 18.7885 8.37256C18.0878 8.60938 17.387 8.84587 16.6673 9.08876L17.4988 10.2801C17.432 10.2946 17.388 10.264 17.3423 10.2487C16.6975 10.0319 16.0532 9.81349 15.4096 9.59339C15.3216 9.56303 15.2452 9.5673 15.1591 9.59659C14.4981 9.82222 13.8358 10.044 13.1739 10.2677C13.1486 10.2765 13.1253 10.294 13.076 10.2772Z" fill="white"/>
<path fill-rule="evenodd" clip-rule="evenodd" d="M19.4746 9.25158L20.2393 8.0821L18.2778 7.37293C18.2778 7.36558 18.2786 7.35812 18.2789 7.35077C18.3251 7.34853 18.3711 7.34448 18.4173 7.34438C19.133 7.34438 19.8487 7.34033 20.5642 7.34768C20.6882 7.34896 20.7522 7.30709 20.8139 7.20919C21.036 6.85871 21.2667 6.51355 21.493 6.16797C21.5444 6.1718 21.5519 6.21324 21.5704 6.24115C21.7889 6.57278 22.0087 6.90377 22.2221 7.2387C22.2712 7.31572 22.3236 7.34651 22.4181 7.34598C23.143 7.34182 23.8678 7.34374 24.5926 7.34374H24.7414C24.7433 7.35247 24.7454 7.3611 24.7474 7.36984L22.7763 8.08231C23.0341 8.47647 23.2853 8.86072 23.5408 9.25137C23.4883 9.26564 23.4502 9.23795 23.4116 9.2241C22.8141 9.00997 22.2167 8.79585 21.6208 8.57757C21.5428 8.54902 21.4774 8.54785 21.3991 8.5765C20.7857 8.80022 20.1709 9.02009 19.5564 9.24082C19.536 9.24881 19.5167 9.26458 19.4746 9.25158Z" fill="white"/>
<path fill-rule="evenodd" clip-rule="evenodd" d="M25.1733 10.1141C25.2584 9.96013 25.3405 9.81163 25.4229 9.66324C25.5148 9.4979 25.608 9.33299 25.6987 9.16734C25.7729 9.03215 25.7983 9.05016 25.6387 8.9823C25.2228 8.80652 24.8072 8.63007 24.392 8.45295C24.3387 8.43015 24.2794 8.41694 24.2323 8.37625C24.2556 8.33875 24.2905 8.35739 24.3178 8.35729C24.8863 8.35601 25.4549 8.35388 26.0234 8.35878C26.1193 8.35952 26.17 8.32991 26.214 8.24799C26.3889 7.92296 26.5709 7.60167 26.7503 7.27856C26.7998 7.2938 26.8065 7.3379 26.825 7.37071C26.986 7.65738 27.1492 7.94299 27.3027 8.23361C27.3509 8.3249 27.4036 8.36048 27.5126 8.35931C28.0719 8.35271 28.6313 8.35622 29.1907 8.35622H29.2933C29.2954 8.36485 29.2975 8.37359 29.2994 8.38221L27.7548 9.03908L28.3615 10.133C28.2817 10.1011 28.2322 10.0828 28.1839 10.0622C27.7515 9.87853 27.3185 9.69637 26.888 9.50909C26.8022 9.4718 26.7308 9.46924 26.6431 9.50749C26.1958 9.70244 25.7455 9.891 25.296 10.0805C25.2601 10.0956 25.2268 10.1226 25.1733 10.1141Z" fill="white"/>
<path fill-rule="evenodd" clip-rule="evenodd" d="M22.8857 45.3523L23.5306 44.3267C23.4557 44.3421 23.3989 44.3565 23.3411 44.3653C23.0302 44.4118 22.7414 44.2472 22.6281 43.9604C22.503 43.6435 22.5954 43.271 22.8491 43.0656C23.1072 42.8571 23.5771 42.8288 23.8582 43.0067C24.0463 43.1258 24.1516 43.2979 24.1832 43.5134C24.211 43.7038 24.1845 43.8889 24.1163 44.068C23.9552 44.4923 23.7462 44.8976 23.4932 45.2765C23.4568 45.331 23.4184 45.3563 23.3498 45.3539C23.2036 45.3487 23.0571 45.3523 22.8857 45.3523Z" fill="white"/>
<path fill-rule="evenodd" clip-rule="evenodd" d="M27.0876 43.6517C27.0876 43.8754 27.0868 44.0999 27.0876 44.324C27.0881 44.4245 27.09 44.4245 27.1956 44.4272C27.3277 44.4305 27.3277 44.4304 27.3283 44.5563C27.3283 44.5697 27.3283 44.5832 27.3283 44.5966C27.3283 44.7445 27.3283 44.7492 27.1763 44.7483C27.1001 44.7483 27.0842 44.7759 27.086 44.8422C27.0898 44.9807 27.0844 45.1201 27.0882 45.259C27.09 45.3249 27.0753 45.3589 26.9983 45.3536C26.9112 45.3488 26.824 45.3488 26.7369 45.3536C26.6765 45.3562 26.6582 45.3333 26.6594 45.2758C26.6626 45.1279 26.6572 44.9798 26.6619 44.8321C26.664 44.7652 26.6389 44.7492 26.5748 44.7497C26.2679 44.7524 25.9609 44.7513 25.6539 44.7506C25.5427 44.7506 25.545 44.749 25.541 44.6383C25.5379 44.5757 25.5562 44.5138 25.5931 44.4625C25.9315 43.9672 26.2682 43.4708 26.6034 42.9733C26.643 42.9144 26.6837 42.8838 26.7582 42.8906C26.8308 42.8971 26.9046 42.8912 26.9779 42.8921C27.0852 42.8933 27.0862 42.8939 27.0868 43.0069C27.0881 43.2214 27.0876 43.4366 27.0876 43.6517Z" fill="white"/>
<path fill-rule="evenodd" clip-rule="evenodd" d="M21.38 43.2917C21.4308 43.1922 21.486 43.0857 21.539 42.9783C21.5584 42.9392 21.5897 42.9327 21.6291 42.9329C21.8261 42.9337 22.0231 42.9346 22.22 42.9329C22.2787 42.9322 22.3043 42.9525 22.3009 43.011C22.298 43.0601 22.3003 43.1095 22.3003 43.1588C22.3003 43.8402 22.3003 44.5215 22.3003 45.2028C22.3003 45.2342 22.2993 45.2656 22.3003 45.297C22.3017 45.3373 22.2811 45.3528 22.2419 45.3526C22.1228 45.3521 22.0037 45.3517 21.8845 45.3526C21.8403 45.3526 21.8307 45.3296 21.8322 45.293C21.8335 45.2616 21.8322 45.2302 21.8322 45.1989V43.4775C21.8322 43.4505 21.8302 43.4234 21.8322 43.3967C21.8369 43.3397 21.8133 43.3157 21.7533 43.3173C21.648 43.3201 21.5425 43.3183 21.4375 43.3173C21.4207 43.3171 21.4005 43.3238 21.38 43.2917Z" fill="#FEFEFE"/>
<path fill-rule="evenodd" clip-rule="evenodd" d="M24.3871 43.3182C24.4516 43.1917 24.5051 43.0889 24.5563 42.9852C24.5745 42.9484 24.5998 42.9327 24.6421 42.9329C24.8435 42.934 25.045 42.9346 25.2465 42.9329C25.3009 42.9323 25.3202 42.9553 25.3171 43.0052C25.3154 43.0319 25.3171 43.0585 25.3171 43.0858V45.2089C25.3171 45.2357 25.3153 45.2628 25.3171 45.2895C25.3205 45.3344 25.3035 45.3541 25.255 45.3534C25.1406 45.3513 25.0263 45.3518 24.9116 45.3534C24.8638 45.3534 24.8463 45.3321 24.8493 45.2878C24.8513 45.2566 24.8493 45.2252 24.8493 45.1938V43.4729C24.8493 43.4415 24.8476 43.4101 24.8493 43.3788C24.8521 43.3318 24.8291 43.317 24.784 43.3177C24.661 43.3193 24.5381 43.3182 24.3871 43.3182Z" fill="white"/>
<path fill-rule="evenodd" clip-rule="evenodd" d="M27.6272 16.2018C27.6418 16.1726 27.6631 16.1641 27.6834 16.1534C28.5091 15.7165 29.3349 15.2795 30.1608 14.8425C30.2371 14.802 30.3154 14.7641 30.4004 14.7425C30.5304 14.7094 30.6492 14.7318 30.7421 14.8283C30.9248 15.018 31.0453 15.2444 31.1133 15.4943C31.1485 15.6243 31.1057 15.7446 30.9992 15.8344C30.9502 15.8748 30.8975 15.9108 30.8419 15.942C30.0206 16.415 29.1736 16.8424 28.3396 17.2928C28.2908 17.3192 28.2567 17.3374 28.2205 17.2715C28.0242 16.9118 27.8238 16.5547 27.6272 16.2018Z" fill="white"/>
<path fill-rule="evenodd" clip-rule="evenodd" d="M21.9502 21.3934C21.9265 21.1013 21.9284 20.8323 21.9215 20.5637C21.9092 20.1244 21.8988 19.6851 21.8821 19.246C21.8792 19.1679 21.9055 19.1314 21.9708 19.0871C22.1099 18.9926 22.2145 19.0037 22.3553 19.1023C22.8767 19.4674 23.4102 19.816 23.9385 20.1718C23.9795 20.1994 24.0269 20.2199 24.0619 20.2696L21.9502 21.3934Z" fill="white"/>
<path fill-rule="evenodd" clip-rule="evenodd" d="M38.0393 12.831L35.9432 13.9466C35.9106 13.8933 35.9199 13.8383 35.9185 13.7868C35.9038 13.2581 35.8911 12.7294 35.8771 12.2006C35.8733 12.0573 35.8686 11.9139 35.8605 11.7707C35.8574 11.7188 35.8773 11.6905 35.9218 11.6642C36.1396 11.5363 36.1396 11.5352 36.3498 11.6764C36.8746 12.0286 37.3993 12.381 37.9239 12.7335C37.9607 12.7592 38.0052 12.7761 38.0393 12.831Z" fill="white"/>
<path fill-rule="evenodd" clip-rule="evenodd" d="M23.386 44.0074C23.1672 44.0054 23.0326 43.8689 23.0328 43.648C23.0328 43.434 23.1777 43.2873 23.3892 43.2869C23.6039 43.2869 23.7413 43.428 23.7401 43.6491C23.7395 43.8679 23.5989 44.0097 23.386 44.0074Z" fill="#20211D"/>
<path fill-rule="evenodd" clip-rule="evenodd" d="M26.0264 44.4271C26.2356 44.0873 26.4627 43.792 26.6496 43.4576C26.6759 43.4945 26.6671 43.5251 26.6671 43.5535C26.6671 43.8126 26.6671 44.0717 26.6659 44.3312C26.6654 44.4256 26.6635 44.4271 26.5674 44.4271C26.395 44.4279 26.2224 44.4271 26.0264 44.4271Z" fill="#20211D"/>
</g>
<defs>
<clipPath id="clip0_198_1097">
<rect width="48.172" height="52" fill="white" transform="translate(0.31543)"/>
</clipPath>
</defs>
</svg>
