<svg width="47" height="53" viewBox="0 0 47 53" fill="none" xmlns="http://www.w3.org/2000/svg">
<g clip-path="url(#clip0_198_1042)">
<path d="M23.4143 0.828529C17.5755 7.97718 10.0374 10.7688 0.854262 9.00693C0.643364 32.4052 11.5679 43.4586 23.4203 52.3572C35.1463 43.5717 46.2696 32.3338 45.9623 9.02478C36.4237 10.7747 29.3074 8.06052 23.4143 0.828529Z" fill="white"/>
<path d="M23.4143 0.828531C17.5755 7.97719 10.0374 10.7688 0.854262 9.00693C0.643364 32.4052 11.5679 43.4586 23.4203 52.3572C35.1463 43.5717 46.2696 32.3338 45.9623 9.02478C36.4237 10.7747 29.3074 8.06052 23.4143 0.828531Z" stroke="#8E0927" stroke-width="2.58951" stroke-miterlimit="2.6131"/>
<path d="M40.9369 27.0721C38.3519 34.0719 33.2482 41.3456 23.4022 49.2561C13.6768 41.3872 8.5731 34.0541 5.96399 27.0721H40.9369Z" fill="#00613C"/>
<path d="M3.39105 11.8759C15.358 12.0009 18.7987 9.61407 23.4083 4.55466C28.3855 9.46526 31.6875 12.0247 43.4315 11.8759C43.3833 16.5246 42.9254 21.1793 41.3286 25.953H5.56631C3.92733 21.1257 3.44528 16.4532 3.39105 11.8759Z" fill="#870A28"/>
<path d="M17.7863 12.8997C18.184 13.0247 18.9855 12.7568 19.4193 13.5901C19.6362 14.0068 20.0219 14.4651 20.1484 15.346L22.6249 14.9651C22.3538 14.0008 22.5466 13.977 22.3056 13.227C23.8361 13.0842 25.3244 12.7568 26.7103 12.0306C27.3912 12.5901 27.9938 13.0663 28.8012 13.3877C25.7282 15.0841 26.0415 16.4591 26.2705 17.3579L27.4816 18.7745C27.4334 15.8044 29.3677 13.9115 31.7779 13.3342C30.1329 12.4532 28.5421 11.4592 27.0418 10.2866C24.3001 11.239 20.9197 12.3163 19.4976 11.2628L17.7863 12.8997Z" fill="white"/>
<path d="M15.3158 19.8162C15.3098 19.9114 17.3887 18.7805 17.9009 19.0245L17.708 17.8579C20.1424 16.7805 22.6189 16.3282 25.9873 16.8817C26.0114 16.3579 25.9933 15.9651 26.2343 15.4413C25.1136 15.2449 23.9988 15.2032 22.8539 15.1139C22.0586 15.1853 20.8836 15.3103 20.0219 15.5782C19.1602 15.846 18.2262 16.2091 17.4369 16.2865C16.6415 16.3639 16.2619 16.1139 15.5388 15.9353C14.9423 16.6139 14.5928 16.9115 13.6949 17.7031C14.4241 17.5365 15.5147 17.7924 15.358 19.4412L15.3158 19.8162Z" fill="white"/>
<path d="M28.3915 15.8104C30.7596 16.6794 30.8199 15.8639 31.8382 15.7806L32.4408 16.9413C29.3134 17.8579 27.8492 21.5364 30.145 23.6316C27.9095 24.0602 26.5838 21.3102 28.3674 17.9591C28.4699 17.7627 28.3554 17.4532 28.4759 17.2568L27.8131 17.0841C27.9336 16.5782 28.1625 16.2925 28.3915 15.8104Z" fill="white"/>
<path d="M29.7714 19.1852C29.5123 19.584 29.2833 20.1197 29.2532 20.715C30.4704 21.1316 31.1633 21.8042 31.6393 23.4054C31.6514 23.453 31.6755 23.5006 31.6936 23.5482C32.3082 25.1137 35.3572 25.1554 35.8874 24.6256C36.02 24.0185 35.8392 23.6435 35.2849 23.4887C34.6461 23.4947 34.7184 24.1256 34.134 23.9709C33.4169 23.7209 33.0192 23.4113 32.8505 22.8161C32.5914 21.9292 33.1036 20.9709 34.4774 20.6495L33.7905 19.715C32.4287 19.7983 31.0609 19.7983 29.7714 19.1852Z" fill="white"/>
<path d="M27.9034 18.6496L27.5901 18.5663L27.5298 18.852L27.3852 18.9115L26.9815 18.4294C25.6197 18.2687 24.2639 18.2567 22.9021 18.3996L22.8178 19.9591C24.4266 19.8341 25.9873 19.8996 27.4395 20.1555C27.5539 19.6198 27.6564 19.1198 27.9034 18.6496Z" fill="white"/>
<path d="M20.046 17.34L19.9375 25.1672L22.2453 25.0541L22.3538 23.8042L24.059 23.697L24.3362 23.9708C23.1251 27.2624 23.824 29.2564 26.4271 29.9469L26.4814 29.6195C24.758 28.4231 24.5049 25.3994 26.7585 23.8042L26.0415 22.3935C24.7038 22.0423 23.4203 23.0006 22.3538 22.2864L22.7394 16.9055C21.9019 16.9769 20.998 16.9412 20.046 17.34Z" fill="white"/>
<path d="M17.1295 32.1195L16.8524 34.1849C19.9797 34.8516 23.4083 35.0063 27.4153 33.6433C29.452 32.9528 31.4284 32.2147 33.5193 32.554C33.1216 31.9588 35.08 28.316 36.7671 30.435L37.7011 30.4886C37.2793 29.6552 37.2974 29.2029 38.5809 28.4767C37.1709 28.316 36.1405 28.4231 35.1703 27.6612C30.8921 31.6076 24.3302 33.6075 17.1295 32.1195Z" fill="white"/>
<path d="M25.7703 25.2744C25.4148 25.8875 25.2461 26.2625 25.3305 26.8756C26.2283 26.9589 27.0176 27.3934 27.3671 28.0422L27.3973 25.1613L25.7703 25.2744Z" fill="white"/>
<path d="M19.9978 26.9947L19.7447 32.3398C20.5943 32.4648 21.2511 32.4946 22.0284 32.4767L22.1911 26.9887L19.9978 26.9947Z" fill="white"/>
<path d="M19.6904 34.7564C20.6546 34.8755 21.4861 34.8278 22.2212 34.8636C22.4201 38.1135 23.6614 39.423 26.4151 40.2861C26.9694 40.4587 27.6443 40.6432 28.048 40.8932C21.4801 41.5003 21.4981 37.3278 18.5636 40.5122L17.7622 39.3992C18.7504 38.4825 19.3289 36.6909 19.6904 34.7564Z" fill="white"/>
<path d="M19.7326 18.8579C15.7557 19.2389 12.1283 21.465 9.01902 26.3697C8.77799 26.7149 8.28991 27.2506 8.19952 27.3518C8.60324 27.4232 8.90452 27.7327 9.09132 27.9054C10.7002 30.7863 12.4657 32.4529 14.2915 33.3993C14.5506 32.7267 14.6048 32.0541 14.7012 31.3815C13.5684 30.8815 11.1159 28.6911 11.3509 26.2923C12.5259 23.2388 16.2679 20.5841 19.7326 20.6377V18.8579Z" fill="white"/>
<path d="M15.4484 22.2745C16.1474 21.6733 16.9006 21.2448 17.7743 21.1674L17.8587 25.6435C19.7387 25.1971 21.8175 25.1613 23.6975 25.2804L23.5409 26.7327C21.6187 26.7744 19.4916 26.7744 17.5333 27.4172C17.232 30.3279 16.9729 33.1136 16.1052 35.8992C17.5393 36.3694 18.2564 36.9885 18.5998 37.6789L17.943 38.8932C17.0271 37.6492 16.1293 36.9885 14.424 37.2801L13.6046 36.554C15.4002 33.1433 15.2014 26.5304 15.4484 22.2745Z" fill="white"/>
<path d="M18.7505 40.5063C18.9372 40.4468 19.4856 41.4765 20.4256 41.7384C20.4738 41.7801 21.0824 41.7146 20.7751 41.5955C20.4678 41.4765 19.8953 40.7087 19.5458 39.798C19.5519 39.798 18.5697 40.5658 18.7505 40.5063Z" fill="white"/>
</g>
<defs>
<clipPath id="clip0_198_1042">
<rect width="46.1649" height="53" fill="white" transform="translate(0.32251)"/>
</clipPath>
</defs>
</svg>
