<svg width="57" height="56" viewBox="0 0 57 56" fill="none" xmlns="http://www.w3.org/2000/svg">
<path fill-rule="evenodd" clip-rule="evenodd" d="M28.5838 0C44.1034 0 56.6846 12.5353 56.6846 28.0005C56.6846 43.4657 44.1034 56 28.5838 56C13.0641 56 0.483887 43.4637 0.483887 28.0005C0.483887 12.5372 13.0641 0 28.5838 0Z" fill="white"/>
<path fill-rule="evenodd" clip-rule="evenodd" d="M28.5837 0.797241C43.6618 0.797241 55.8845 12.9763 55.8845 28.0005C55.8845 43.0248 43.6618 55.2028 28.5837 55.2028C13.5056 55.2028 1.28394 43.0238 1.28394 28.0005C1.28394 12.9772 13.5066 0.797241 28.5837 0.797241ZM28.5837 1.49808C43.273 1.49808 55.1802 13.3637 55.1802 28.0005C55.1802 42.6374 43.2711 54.503 28.5837 54.503C13.8964 54.503 1.98729 42.6344 1.98729 28.0005C1.98729 13.3666 13.8954 1.49808 28.5837 1.49808Z" fill="#006437"/>
<path fill-rule="evenodd" clip-rule="evenodd" d="M28.5838 2.25928C42.851 2.25928 54.4173 13.7842 54.4173 27.9996C54.4173 42.2149 42.852 53.7398 28.5838 53.7398C14.3155 53.7398 2.75122 42.2159 2.75122 27.9996C2.75122 13.7832 14.3165 2.25928 28.5838 2.25928ZM28.5838 4.65576C31.3787 4.65557 34.111 5.48124 36.4351 7.02837C38.7591 8.57549 40.5705 10.7746 41.6403 13.3475C42.71 15.9205 42.99 18.7518 42.4448 21.4833C41.8997 24.2148 40.5539 26.7239 38.5776 28.6932C36.6013 30.6626 34.0833 32.0038 31.342 32.5472C28.6007 33.0906 25.7593 32.8118 23.1771 31.7461C20.5948 30.6803 18.3877 28.8755 16.8349 26.5599C15.2821 24.2443 14.4532 21.5218 14.4532 18.7368C14.4532 15.0024 15.9419 11.421 18.5919 8.78034C21.2419 6.13966 24.836 4.65602 28.5838 4.65576ZM14.1602 24.7387C14.4676 25.4603 14.824 26.1601 15.2269 26.8334C15.8433 27.7747 15.435 28.8445 14.2862 29.4314L11.9319 30.6277C10.8085 31.1855 8.67989 30.9363 8.27741 29.4353C8.11785 28.9554 7.98929 28.4657 7.89252 27.9694L4.52523 28.9097C4.4461 27.6949 4.43536 27.4837 4.50765 26.4499L14.1602 24.7387ZM13.1354 26.5492L9.89317 27.4253C9.92949 27.6892 9.98798 27.9497 10.068 28.204C10.3025 28.9827 10.6669 28.9661 11.5793 28.6342L12.7652 28.1923C13.24 27.9811 13.7147 27.7689 13.4646 27.2286C13.3025 26.9366 13.1354 26.5327 13.1354 26.5473V26.5492ZM17.2383 29.484C17.6085 29.8733 18.0667 30.3016 18.518 30.6842L9.48581 42.6821C8.88584 41.8923 8.33138 41.0691 7.82512 40.2166L10.3503 37.4969C9.79255 36.6598 9.29923 35.9492 8.84303 34.8824L5.91826 36.1663C5.61304 35.3744 5.36717 34.561 5.18267 33.7328L17.2344 29.484H17.2383ZM15.2474 32.1842L10.6727 34.0862C10.9938 34.72 11.3731 35.3229 11.8059 35.8869L15.2474 32.188V32.1842ZM9.81697 43.0861L20.0498 31.824C20.0107 31.8143 20.9749 32.408 21.4389 32.6416L13.534 43.0871C14.3604 43.9047 14.674 44.1636 15.6831 44.918L14.25 47.3437C12.7457 46.2671 10.7743 44.3525 9.81404 43.0812L9.81697 43.0861ZM14.8655 47.7856L22.7958 33.2627C23.2754 33.4545 23.7645 33.6221 24.2611 33.7649L23.3917 41.2454C23.6281 40.7042 26.335 34.237 26.335 34.2107C26.7482 34.2769 27.5346 34.348 27.8794 34.3626L26.8117 52.0111C25.9032 51.9858 24.5033 51.7765 23.5128 51.5429L25.026 42.6344L21.221 48.7201L21.1233 41.3223C20.8088 42.2607 17.6632 49.4365 17.6632 49.4628C16.6905 48.9696 15.7539 48.4085 14.8606 47.7837L14.8655 47.7856ZM31.5945 34.091C30.5718 34.2888 29.5317 34.3831 28.49 34.3723L28.1295 52.0763C30.8346 52.142 33.5311 51.7469 36.1028 50.9082L35.3086 47.917C34.0308 48.3259 32.7834 48.6286 31.5417 48.7405L30.8374 42.6958C32.122 42.5585 32.8224 42.4038 33.7397 42.1069L33.1301 39.8554C32.29 40.0877 31.4315 40.2475 30.5639 40.3334L30.0686 36.0612C30.7395 36.035 31.4057 35.9371 32.0556 35.7691L31.5984 34.0969L31.5945 34.091ZM32.1161 33.9849C32.6525 33.8584 33.0041 33.763 33.5101 33.5956L40.3923 49.0364C39.3519 49.611 38.2724 50.1122 37.1617 50.5364L32.1161 33.9849ZM41.4326 48.4125L34.0611 33.3989C34.947 33.0753 35.8006 32.67 36.6108 32.188C37.6248 31.5378 38.4668 32.1968 39.3226 32.9804L41.4766 34.9768C43.5183 36.8691 43.148 38.2815 42.6957 38.7351L48.0578 42.2451C47.5117 43.0092 46.911 43.733 46.2603 44.4109L41.0243 40.201L40.4147 40.6127L44.3164 46.3002C43.411 47.079 42.4458 47.7859 41.4297 48.4144L41.4326 48.4125ZM39.2835 38.8207C40.2975 38.1646 40.9119 37.6478 39.6596 36.1867L38.2627 34.4298C37.4108 33.2695 36.9126 33.8963 36.2747 34.1893L39.2835 38.8207ZM40.1969 29.2689C39.8364 29.6456 39.4652 30.0378 39.0363 30.4077L48.2678 41.9531C48.8478 41.1489 49.381 40.3124 49.865 39.4476L47.3418 36.9372C47.8839 36.0612 48.1233 35.5579 48.5648 34.531L51.4358 35.7779C51.7473 35.0019 51.9965 34.2025 52.1812 33.3873L40.2008 29.2689H40.1969ZM42.475 31.9797L46.7224 33.7153C46.451 34.2959 46.1349 34.8547 45.7768 35.3866L42.475 31.9797ZM45.1516 26.6962C45.3626 26.2426 45.5482 25.7705 45.7289 25.2799L44.4541 25.056C43.5231 24.9071 42.9097 25.2127 42.6068 25.6196C42.3111 26.0328 42.0744 26.4849 41.9035 26.9629C41.6837 27.5187 41.6974 28.5349 43.2711 29.2328C44.6387 29.8617 45.6654 30.4895 47.8361 28.6439C49.106 27.6229 49.5944 27.9684 50.0575 28.0648C50.7237 28.2877 50.7931 28.5563 50.6622 29.2523C50.4873 30.1128 49.5114 29.6563 49.0425 29.4723C48.866 30.1364 48.6417 30.787 48.3714 31.4191C48.6547 31.5378 49.0083 31.6984 49.3277 31.8318C50.7745 32.409 52.4069 32.0956 52.7849 30.3513C53.0125 29.1783 52.9432 28.6079 52.9432 28.4045C52.9226 27.3201 52.1216 26.3604 50.7364 26.1083C49.3844 25.8377 48.4818 25.7637 46.5915 27.179C45.6215 27.8964 45.4603 28.166 44.5811 27.8185C44.1132 27.6414 43.6638 27.4846 43.9256 26.9376C44.1269 26.5161 44.3359 26.4451 45.1633 26.6884L45.1516 26.6962ZM15.1859 8.73912L14.8704 9.46916L15.4086 10.0532L14.6183 9.97825L14.2276 10.6723L14.0556 9.89356L13.2741 9.73782L13.958 9.33386L13.8671 8.54542L14.463 9.07202L15.183 8.73912H15.1859ZM12.8639 11.3313L12.645 12.2871L13.4265 12.8712L12.4497 12.9578L12.1351 13.8864L11.7512 12.9841L10.7743 12.9714L11.5119 12.327L11.2188 11.3906L12.0589 11.8948L12.858 11.3283L12.8639 11.3313ZM10.8759 14.6525L10.8622 15.9179L12.011 16.4406L10.8065 16.8182L10.6639 18.0749L9.9342 17.0441L8.69747 17.2972L9.45064 16.2819L8.82935 15.1849L10.025 15.5889L10.8759 14.6564V14.6525ZM9.45357 18.9023L9.83749 20.4723L11.4259 20.7546L10.0573 21.6093L10.281 23.2105L9.04622 22.1621L7.59555 22.8688L8.20122 21.3718L7.08172 20.2037L8.69063 20.3224L9.44967 18.8984L9.45357 18.9023ZM47.711 18.9023L47.3271 20.4723L45.7387 20.7546L47.1063 21.6054L46.8856 23.2066L48.1174 22.1621L49.5681 22.8688L48.9585 21.3718L50.078 20.2037L48.4691 20.3224L47.7091 18.8984L47.711 18.9023ZM46.2877 14.6525L46.3014 15.9179L45.1526 16.4415L46.3571 16.8192L46.4997 18.0759L47.2304 17.045L48.4671 17.2981L47.7139 16.2829L48.3362 15.1849L47.1405 15.5889L46.2877 14.6564V14.6525ZM44.2998 11.3313L44.5186 12.2871L43.7371 12.8712L44.714 12.9578L45.0285 13.8864L45.4124 12.9841L46.3893 12.9714L45.6518 12.327L45.9448 11.3906L45.1047 11.8948L44.3056 11.3283L44.2998 11.3313ZM41.9777 8.73912L42.2942 9.46916L41.755 10.0532L42.5453 9.97825L42.936 10.6723L43.1089 9.89356L43.8904 9.73782L43.2066 9.33386L43.2994 8.54347L42.7045 9.07008L41.9826 8.73718L41.9777 8.73912Z" fill="#006437"/>
<path fill-rule="evenodd" clip-rule="evenodd" d="M28.5828 5.37695C31.2348 5.37695 33.8273 6.16057 36.0323 7.62871C38.2374 9.09685 39.956 11.1836 40.9708 13.625C41.9857 16.0664 42.2512 18.7528 41.7337 21.3446C41.2163 23.9363 39.9391 26.317 38.0638 28.1855C36.1885 30.054 33.7992 31.3264 31.1981 31.8418C28.597 32.3572 25.901 32.0925 23.4509 31.0811C21.0008 30.0697 18.9067 28.3571 17.4335 26.1598C15.9602 23.9625 15.174 21.3793 15.1742 18.7367C15.1745 15.1934 16.5873 11.7953 19.1018 9.28988C21.6164 6.78446 25.0268 5.37695 28.5828 5.37695ZM39.304 11.2728C39.4945 19.1095 35.6085 27.139 28.8134 31.8113C31.1897 31.7692 33.5098 31.0836 35.525 29.8279C37.5401 28.5722 39.1743 26.7937 40.2523 24.6831C41.3304 22.5724 41.8117 20.2093 41.6446 17.8469C41.4776 15.4845 40.6685 13.2119 39.304 11.2728ZM28.363 31.8113C21.7183 27.2062 17.6877 19.0501 17.8723 11.2591C16.5035 13.1982 15.6906 15.4721 15.5211 17.8368C15.3515 20.2015 15.8316 22.5675 16.9099 24.6807C17.9881 26.794 19.6237 28.5746 21.6411 29.8314C23.6584 31.0882 25.9812 31.7737 28.3601 31.8142L28.363 31.8113ZM18.0394 11.0265C21.8762 10.1093 25.4366 8.28955 28.4226 5.71959C26.3977 5.74279 24.4059 6.23422 22.604 7.15514C20.8022 8.07606 19.2396 9.40132 18.0394 11.0265ZM28.7391 5.72056C32.0947 8.72249 35.9299 10.2711 39.1233 11.0226C37.9227 9.39797 36.3597 8.07341 34.5577 7.15331C32.7557 6.23322 30.7638 5.74275 28.7391 5.72056ZM39.0442 11.2621C32.9162 9.83118 29.1709 6.52166 28.5857 5.93762C28.0143 6.52166 24.1488 9.87693 18.1449 11.266C18.0257 24.3395 27.731 31.0608 28.5857 31.6351C29.4366 31.0676 39.1292 24.5839 39.0442 11.2621Z" fill="#006437"/>
<path d="M38.204 11.7468C38.4395 18.9577 34.7224 26.4693 28.5857 30.7026C22.5945 26.5365 18.7427 18.911 18.9693 11.7478C21.7524 11.1025 25.4333 9.67936 28.5847 6.84583C31.613 9.68909 35.331 11.0733 38.204 11.7468ZM27.7388 7.91363H29.4063C29.1176 7.69115 28.8426 7.45159 28.5828 7.19624C28.3179 7.45398 28.0359 7.69365 27.7388 7.91363ZM29.543 8.0207H27.5991C27.2982 8.24653 26.9367 8.5074 26.5177 8.77703H30.601C30.1897 8.50351 29.8371 8.24653 29.545 8.0207H29.543ZM30.7671 8.88313H26.3545C25.9726 9.12745 25.5466 9.38442 25.0846 9.64334H27.8452C27.7749 9.67741 27.7046 9.71245 27.6352 9.75042H24.8863C24.4174 10.0045 23.9094 10.2595 23.3692 10.5058H26.5538C26.5137 10.5408 26.4747 10.5768 26.4366 10.6128H23.1298C22.5203 10.8825 21.8687 11.1394 21.1761 11.3731H23.7091C23.6749 11.4071 23.6417 11.4422 23.6114 11.4792H20.8557C20.3311 11.6475 19.786 11.8023 19.2214 11.9366C19.2214 12.034 19.2214 12.1362 19.2214 12.2355H24.603C24.6326 12.2687 24.6591 12.3045 24.6821 12.3425H19.2243C19.2282 12.5989 19.2363 12.8523 19.2487 13.1028H24.7827V13.2098H19.2546C19.2683 13.4649 19.2858 13.716 19.3073 13.9652H24.7827V14.0723H19.3122C19.3357 14.3283 19.363 14.5823 19.3933 14.8325H24.7788V14.9395H19.406C19.4392 15.1946 19.4753 15.4467 19.5164 15.6959H24.7778V15.8029H19.5388C19.5828 16.0589 19.6297 16.312 19.6815 16.5632H24.8589L24.7505 16.6702H19.7039C19.7567 16.9214 19.8124 17.1696 19.8729 17.4139H24.477L24.5903 17.521H19.9013C19.9667 17.7818 20.0371 18.0398 20.1103 18.2929H24.7847V18.397H20.1396C20.2158 18.6527 20.2953 18.9048 20.378 19.1533H24.7827V19.2604H20.4122C20.5001 19.5184 20.5909 19.7714 20.6867 20.0206H24.7808V20.1277H20.7287C20.8283 20.3873 20.9315 20.6391 21.0384 20.8831H24.7817V20.9901H21.0843C21.1976 21.2497 21.3138 21.5031 21.433 21.7503H24.7817V21.8574H21.4867C21.6131 22.117 21.7433 22.3691 21.8775 22.6137H24.7866V22.7198H21.9341C22.0716 22.9729 22.2113 23.2195 22.3532 23.4596H24.7857C24.7857 23.4956 24.7857 23.5316 24.7857 23.5667H22.4128C22.5672 23.8256 22.7254 24.0777 22.8846 24.322H24.5151C24.4855 24.36 24.4528 24.3955 24.4174 24.4281H22.9521C23.1246 24.6877 23.2988 24.9411 23.4747 25.1884H24.1272C24.1673 25.2263 24.2064 25.2623 24.2474 25.2954H23.5519C23.7472 25.5573 23.9319 25.8094 24.1233 26.0508H25.7694C25.785 26.0868 25.8006 26.1228 25.8172 26.1579H24.2093C24.421 26.4239 24.6316 26.6773 24.8413 26.9181H26.3711C26.4102 26.9551 26.4512 26.9911 26.4923 27.0251H24.9293C25.1637 27.2928 25.3952 27.5449 25.6209 27.7805H31.5574C31.7853 27.5449 32.0181 27.2931 32.2558 27.0251H28.4362C28.3913 26.9901 28.3473 26.9551 28.3053 26.9181H32.3555C32.5658 26.6773 32.7778 26.4239 32.9914 26.1579H27.6928C27.6733 26.1228 27.6557 26.0868 27.6372 26.0508H33.0754C33.2669 25.8094 33.4584 25.5576 33.6498 25.2954H27.3705C27.3617 25.2604 27.3539 25.2244 27.346 25.1884H33.728C33.9032 24.9437 34.078 24.6916 34.2526 24.432H27.2396C27.2396 24.397 27.2337 24.361 27.2318 24.3259H34.3229C34.4818 24.0819 34.6391 23.8302 34.7947 23.5706H27.2073C27.2073 23.5355 27.2073 23.4995 27.2073 23.4635H34.8573C34.9999 23.2228 35.1396 22.9762 35.2763 22.7237H27.2093V22.6176H35.335C35.4652 22.3717 35.5938 22.1196 35.7208 21.8613H27.2093V21.7542H35.7726C35.8918 21.5057 36.0077 21.2523 36.1204 20.994H27.2093V20.887H36.1663C36.2728 20.6397 36.3743 20.3886 36.473 20.1316H31.3249L31.5027 20.0713C31.5427 20.0567 31.5808 20.0401 31.6189 20.0255H36.514C36.6117 19.7773 36.6996 19.5232 36.7866 19.2653H32.8302C32.8683 19.2302 32.9074 19.1952 32.9436 19.1582H36.8237C36.9058 18.911 36.9849 18.6589 37.0591 18.4019H33.5648L33.6352 18.2958H37.0875C37.1598 18.0427 37.2291 17.7857 37.2936 17.5239H34.0367C34.0513 17.4889 34.065 17.4528 34.0797 17.4168H37.32C37.3799 17.1728 37.4356 16.9249 37.487 16.6732H34.3258C34.3356 16.6381 34.3434 16.6021 34.3522 16.5661H37.5075C37.5583 16.3162 37.6046 16.0628 37.6462 15.8059H34.4909C34.4909 15.7698 34.4997 15.7348 34.5036 15.6988H37.6638C37.7039 15.4496 37.74 15.1985 37.7723 14.9425H34.5486C34.5486 14.9074 34.5486 14.8714 34.5486 14.8354H37.7898C37.8201 14.5852 37.8455 14.3322 37.869 14.0752H34.4919C34.4919 14.0401 34.4821 14.0041 34.4773 13.9681H37.8739C37.894 13.7189 37.9107 13.4671 37.9237 13.2128H34.3268C34.318 13.1767 34.3083 13.1417 34.2975 13.1057H37.9295C37.9403 12.8555 37.9481 12.6015 37.951 12.3455H34.0308C34.0152 12.3095 33.9996 12.2744 33.983 12.2384H37.952C37.952 12.1411 37.952 12.0437 37.952 11.9396C37.3727 11.8043 36.8159 11.6475 36.2845 11.4821H33.5688C33.5453 11.4461 33.5209 11.411 33.4965 11.376H35.9553C35.249 11.1414 34.5876 10.8893 33.9761 10.6158H32.8488C32.8107 10.5797 32.7706 10.5447 32.7316 10.5087H33.7368C33.1897 10.2624 32.6837 10.0074 32.2177 9.75334H31.5749C31.4939 9.71537 31.4089 9.68033 31.3249 9.64626H32.0253C31.5583 9.38637 31.1373 9.12939 30.7632 8.88507L30.7671 8.88313ZM27.8452 9.64334H28.1383C28.0611 9.67546 27.9859 9.71148 27.9107 9.75042H27.6313C27.6997 9.71245 27.77 9.67644 27.8413 9.64334H27.8452ZM26.5577 10.5048H26.8596C26.8205 10.5398 26.7834 10.5758 26.7443 10.6119H26.4336L26.5509 10.5048H26.5577ZM23.716 11.3721H23.8928C23.8606 11.4061 23.8293 11.4412 23.7951 11.4782H23.6134C23.6456 11.4412 23.6789 11.4061 23.7111 11.3721H23.716ZM24.6088 12.2345H24.8384C24.8487 12.2695 24.8559 12.3053 24.8599 12.3416H24.687C24.6646 12.3033 24.6385 12.2675 24.6088 12.2345ZM24.7857 13.1008H24.8628V13.2079H24.7857V13.1008ZM24.7857 13.9632H24.8618V14.0703H24.7866V13.9632H24.7857ZM24.7857 14.8296H24.8599V14.9366H24.7866V14.8296H24.7857ZM24.7857 15.692H24.8579V15.7991H24.7857V15.692ZM24.4799 17.409H24.6372L24.7349 17.5161H24.5961L24.4828 17.409H24.4799ZM24.7857 18.2851H24.8599V18.397H24.7857V18.2909V18.2851ZM24.7857 19.1475H24.8579V19.2546H24.7857V19.1475ZM24.7857 20.0138H24.857V20.1209H24.7857V20.0138ZM24.7857 20.8762H24.856V20.9833H24.7857V20.8762ZM24.7857 21.7426H24.854V21.8496H24.7857V21.7426ZM24.7857 22.605H24.8531V22.7111H24.7857V22.605ZM24.7857 23.4509H24.8511V23.5579H24.7817C24.7817 23.5229 24.7817 23.4878 24.7817 23.4509H24.7857ZM24.5151 24.3162H24.8286C24.8238 24.3444 24.8179 24.3717 24.812 24.397L24.7944 24.4223H24.4135C24.4489 24.3897 24.4816 24.3542 24.5112 24.3162H24.5151ZM24.1321 25.1825H24.3685C24.4232 25.2195 24.4789 25.2555 24.5375 25.2896H24.2523C24.2122 25.2565 24.1722 25.2205 24.1321 25.1825ZM25.7743 26.0449H26.0087C26.0243 26.08 26.0409 26.116 26.0585 26.152H25.8221C25.8055 26.117 25.7899 26.081 25.7743 26.0449ZM26.375 26.9113H26.6075C26.6456 26.9473 26.6847 26.9833 26.7257 27.0183H26.4962C26.4551 26.9843 26.4151 26.9492 26.375 26.9113ZM28.4392 27.0183H28.1529C28.1149 26.9843 28.0777 26.9482 28.0426 26.9113H28.3083C28.3503 26.9482 28.3942 26.9833 28.4392 27.0183ZM27.6958 26.152H27.5111C27.4936 26.117 27.476 26.081 27.4594 26.0449H27.6411C27.6586 26.081 27.6772 26.117 27.6967 26.152H27.6958ZM27.3734 25.2896H27.1849C27.1751 25.2536 27.1663 25.2185 27.1575 25.1825H27.3529C27.3607 25.2185 27.3685 25.2536 27.3773 25.2896H27.3734ZM27.2415 24.4223H27.0256V24.4067V24.3162H27.2347C27.2347 24.3522 27.2405 24.3873 27.2425 24.4223H27.2415ZM27.2103 23.5609H27.0256V23.4586H27.2103C27.2103 23.4947 27.2103 23.5297 27.2103 23.5657V23.5609ZM27.2103 22.715H27.0266V22.6089H27.2103V22.715ZM27.2103 21.8526H27.0276V21.7455H27.2103V21.8526ZM27.2103 20.9853H27.0286V20.8782H27.2093V20.9853H27.2103ZM31.3249 20.1238H30.4564C30.6787 20.1084 30.8991 20.0726 31.1148 20.0167H31.6189C31.5808 20.0323 31.5417 20.0489 31.5027 20.0625C31.4421 20.0849 31.3835 20.1043 31.3249 20.1238ZM32.8302 19.2565H32.671C32.713 19.2225 32.755 19.1864 32.796 19.1495H32.9436C32.9074 19.1864 32.8683 19.2225 32.8302 19.2565ZM33.5658 18.3941H33.4613L33.5336 18.288H33.6371L33.5658 18.3941ZM34.0367 17.5181H33.9488C33.9634 17.483 33.98 17.447 33.9957 17.411H34.0797C34.066 17.447 34.0523 17.483 34.0367 17.5181ZM34.3297 16.6673H34.2526C34.2623 16.6313 34.2721 16.5963 34.2809 16.5602H34.3561C34.3473 16.5963 34.3395 16.6323 34.3297 16.6673ZM34.4958 15.801H34.4274C34.4323 15.765 34.4382 15.7299 34.4421 15.6939H34.5085C34.5085 15.7299 34.4997 15.765 34.4958 15.801ZM34.5486 14.9386H34.489C34.489 14.9035 34.489 14.8675 34.489 14.8315H34.5476C34.5476 14.8675 34.5476 14.9026 34.5476 14.9386H34.5486ZM34.4958 14.0723H34.446C34.4411 14.0372 34.4362 14.0012 34.4323 13.9652H34.4812L34.4958 14.0723ZM34.3297 13.2098H34.2838C34.275 13.1738 34.2643 13.1388 34.2545 13.1028H34.2956C34.3053 13.1378 34.3161 13.1738 34.3249 13.2098H34.3297ZM34.0367 12.3425H34.0025C33.9869 12.3065 33.9703 12.2715 33.9546 12.2355H33.9888C34.0044 12.2715 34.0201 12.3075 34.0367 12.3425ZM33.5736 11.4801H33.5404C33.517 11.4451 33.4945 11.4091 33.4691 11.374H33.5014C33.5258 11.4091 33.5502 11.4441 33.5736 11.4801ZM32.8537 10.6138H32.8029C32.7638 10.5778 32.7238 10.5418 32.6827 10.5067H32.7365C32.7755 10.5428 32.8156 10.5778 32.8537 10.6138ZM31.5789 9.75139H31.404C31.3063 9.71343 31.2018 9.67644 31.0963 9.64432H31.3278C31.4128 9.67839 31.4968 9.71343 31.5789 9.75139ZM27.0403 18.29H27.2181V18.397H27.0403V18.2909V18.29ZM27.2171 18.29H27.6235C27.6293 18.325 27.6352 18.361 27.642 18.3961H27.2171V18.29ZM27.6235 18.29H27.77C27.7778 18.325 27.7876 18.361 27.7983 18.3961H27.642C27.6352 18.361 27.6293 18.325 27.6235 18.29ZM27.0374 19.1524H27.2161V19.2594H27.0374V19.1524ZM27.2161 19.1524H27.9165C27.9371 19.1884 27.9586 19.2244 27.98 19.2594H27.2161V19.1524ZM27.9165 19.1524H28.1793C28.2077 19.1884 28.236 19.2244 28.2653 19.2594H27.98C27.9586 19.2234 27.9371 19.1884 27.9165 19.1524ZM27.0374 20.0187H27.2171V20.1258H27.0374V20.0187ZM27.2171 20.0187H28.7684C28.8362 20.0579 28.906 20.0936 28.9774 20.1258H27.2191V20.0187H27.2171ZM28.7674 20.0187H29.4375C29.6319 20.0764 29.8321 20.1123 30.0344 20.1258H28.9686C28.8973 20.0927 28.828 20.0567 28.7606 20.0187H28.7674ZM27.8325 11.374H28.0084C27.9732 11.4081 27.94 11.4441 27.9107 11.4801H27.7368C27.769 11.4441 27.8013 11.4091 27.8345 11.374H27.8325ZM28.0084 11.374H31.1021C31.1383 11.4081 31.1744 11.4441 31.2086 11.4801H27.9029C27.9341 11.4441 27.9664 11.4081 28.0006 11.374H28.0084ZM31.1021 11.374H31.3483C31.3786 11.4091 31.4079 11.4441 31.4362 11.4801H31.2086C31.1744 11.4441 31.1383 11.4081 31.1021 11.374ZM27.2659 12.2364H27.4457C27.431 12.2715 27.4174 12.3075 27.4037 12.3435H27.22L27.264 12.2364H27.2659ZM27.4476 12.2364H31.7156C31.7322 12.2715 31.7479 12.3075 31.7625 12.3435H27.4056C27.4193 12.3075 27.434 12.2715 27.4476 12.2364ZM31.7156 12.2364H31.8797C31.8944 12.2715 31.909 12.3075 31.9227 12.3435H31.7635C31.7488 12.3075 31.7322 12.2715 31.7156 12.2364ZM27.054 13.1028H27.2308C27.2308 13.1388 27.2249 13.1738 27.223 13.2098H27.0501C27.0501 13.1738 27.0501 13.1388 27.0501 13.1028H27.054ZM27.2308 13.1028H31.9598C31.9598 13.1378 31.9677 13.1738 31.9696 13.2098H27.222C27.222 13.1738 27.2269 13.1388 27.2308 13.1028ZM31.9598 13.1028H32.1122C32.1122 13.1378 32.12 13.1738 32.123 13.2098H31.9696C31.9696 13.1738 31.9637 13.1378 31.9598 13.1028ZM27.0481 13.9652H27.2171V14.0723H27.0471V13.9652H27.0481ZM27.2171 13.9652H31.9061C31.8963 14.0012 31.8856 14.0362 31.8749 14.0723H27.2103V13.9652H27.2171ZM31.9061 13.9652H32.0771C32.0693 14.0012 32.0605 14.0372 32.0497 14.0723H31.8749C31.8856 14.0362 31.8963 14.0012 31.9061 13.9652ZM27.0501 14.8315H27.221V14.9386H27.0501V14.8315ZM27.221 14.8315H31.4216L31.4001 14.8539C31.4167 14.8821 31.4313 14.9103 31.447 14.9386H27.2103V14.8315H27.221ZM31.4216 14.8315H31.6394L31.6101 14.8646C31.6228 14.8889 31.6336 14.9133 31.6453 14.9376H31.4499C31.4356 14.909 31.42 14.8808 31.403 14.8529L31.4235 14.8315H31.4216ZM27.0471 15.6939H27.22V15.801H27.0471V15.6939ZM27.2191 15.6939H31.784L31.8192 15.801H27.2112V15.6939H27.2191ZM31.784 15.6939H31.9423C31.953 15.729 31.9637 15.765 31.9735 15.801H31.8192L31.784 15.6939ZM27.0452 16.5612H27.2191V16.6683H27.0452V16.5612ZM27.2191 16.5612H28.1852C28.1433 16.5941 28.1038 16.6299 28.067 16.6683H27.2191V16.5612ZM28.1862 16.5612H28.5769C28.4986 16.59 28.4231 16.6258 28.3513 16.6683H28.0709C28.1074 16.6296 28.147 16.5938 28.1891 16.5612H28.1862ZM29.5118 16.5612H29.9172C29.9542 16.5945 29.9888 16.6302 30.0207 16.6683H29.6827C29.6269 16.6262 29.5666 16.5903 29.503 16.5612H29.5118ZM29.9172 16.5612H31.9628C31.9628 16.5972 31.9677 16.6323 31.9686 16.6683H30.0119C29.9807 16.6296 29.9461 16.5937 29.9084 16.5612H29.9172ZM31.9628 16.5612H32.1132C32.1132 16.5972 32.1181 16.6323 32.12 16.6683H31.9686C31.9686 16.6323 31.9686 16.5963 31.9628 16.5612ZM27.0442 17.411H27.2191V17.521H27.0432V17.4139L27.0442 17.411ZM27.2191 17.411H27.6635C27.6547 17.446 27.6469 17.482 27.6401 17.5181H27.22V17.411H27.2191ZM27.6635 17.411H27.7788C27.7681 17.4462 27.7593 17.4819 27.7524 17.5181H27.6313C27.6381 17.482 27.646 17.447 27.6547 17.411H27.6635ZM30.1614 17.411H30.304C30.304 17.447 30.304 17.482 30.304 17.5181H30.1761C30.1761 17.483 30.1663 17.447 30.1595 17.411H30.1614ZM30.304 17.411H31.8915C31.8827 17.447 31.8719 17.483 31.8622 17.5181H30.2972C30.2972 17.483 30.2972 17.447 30.2972 17.411H30.304ZM31.8915 17.411H32.08C32.0741 17.447 32.0673 17.483 32.0585 17.5181H31.8631C31.8739 17.483 31.8846 17.447 31.8934 17.411H31.8915ZM29.9494 18.287H30.0608C30.0325 18.3246 30.0015 18.36 29.968 18.3931H29.7668C29.8344 18.3708 29.8966 18.3347 29.9494 18.287ZM30.0608 18.287H31.4509C31.4216 18.323 31.3923 18.3591 31.362 18.3931H29.9582C29.9934 18.3602 30.026 18.3248 30.0559 18.287H30.0608ZM31.4636 18.287H31.7693C31.7488 18.323 31.7273 18.3591 31.7058 18.3931H31.3747C31.405 18.3591 31.4343 18.323 31.4636 18.287ZM31.4694 27.8798H25.7293C25.9892 28.1475 26.2402 28.3947 26.4786 28.6205H30.7036C30.9449 28.3957 31.1989 28.1484 31.4607 27.8798H31.4694ZM30.5971 28.7266H26.6017C26.9133 29.0186 27.2024 29.2698 27.4594 29.482H29.7326C29.9905 29.2698 30.2825 29.0167 30.5971 28.7266ZM29.5948 29.591H27.5795C27.9021 29.8607 28.2393 30.1126 28.5896 30.3454C28.7186 30.2578 29.0781 30.0066 29.5938 29.591H29.5948ZM23.8166 11.6359C24.3197 11.6183 25.0416 11.9795 25.0416 12.7124V16.3782L24.4047 17.0022L25.0416 17.5862V23.5083C25.0416 23.9229 24.9439 24.5732 24.2083 24.8555C24.7456 25.5028 25.2516 25.385 25.8329 25.0647C25.956 26.849 27.3841 27.4379 28.3278 27.2364C27.0921 26.3321 26.9602 24.9002 26.9504 23.6553V13.3198C26.9504 12.3007 27.6557 10.497 29.5977 10.497C31.7674 10.497 32.969 13.3383 31.6961 14.849C33.9136 18.9373 28.6189 20.9892 28.4597 17.9055C30.1829 19.3753 30.5873 16.6294 29.1621 16.5135C26.84 16.3188 27.5502 21.3659 31.5115 19.7851C35.6143 18.1118 35.4248 9.66962 29.3721 9.51194C27.9781 9.47592 26.7033 10.5758 25.87 11.6534C25.2252 11.0148 24.5522 10.8533 23.8185 11.6339L23.8166 11.6359ZM24.7817 16.2809V12.7144C24.7817 12.0184 23.9748 11.8315 23.3164 11.8705C23.9612 10.8465 24.9175 10.5077 25.8338 11.2796C26.4483 10.4201 27.9546 9.23549 29.3682 9.27638C35.7071 9.37371 35.9816 18.4389 31.4978 20.0625C27.1585 21.6335 26.4864 16.0823 29.1992 16.2721C30.9673 16.4249 30.4115 19.3655 28.8211 18.4418C29.4414 20.2455 33.4125 18.3999 31.3874 14.8519C32.7306 13.4892 31.5642 10.7637 29.589 10.7404C27.9146 10.717 27.2132 12.2822 27.2064 13.3432V23.3837C27.1858 25.1611 27.4389 26.5472 28.911 27.321C27.4242 28.0151 25.8758 27.0076 25.6033 25.4862C24.9634 25.7549 24.2894 25.569 23.7472 24.7075C24.2982 24.6355 24.7798 24.2743 24.7739 23.4255V17.6962L24.0344 17.0022L24.7739 16.2809H24.7817Z" fill="#006437"/>
</svg>
